<svg id="Camada_1" data-name="Camada 1" xmlns="http://www.w3.org/2000/svg" viewBox="0 0 960 720"><defs><style>.cls-1,.cls-2,.cls-3{isolation:isolate;}.cls-2,.cls-3{font-size:128px;font-family:Arial-BoldMT, Arial;font-weight:700;}.cls-2,.cls-5{fill:#faf8ed;}.cls-3,.cls-4{fill:#037e8c;}.cls-4{stroke:#037e8c;stroke-linejoin:round;}</style></defs><title>Prancheta 1 cópia 7</title><g class="cls-1"><text class="cls-2" transform="translate(248.47 396.85)">Coders.</text><text class="cls-3" transform="translate(733.05 396.85)">IO</text></g><path class="cls-4" d="M163.21,343.85h3.06v14.37h-3.06Z"/><path class="cls-4" d="M140.87,337.23q-2.18,0-2.18,5.29,0,5,2.12,5t2.09-5.12Q142.9,337.23,140.87,337.23Zm.13-2.3q5,0,5,7.33a9.79,9.79,0,0,1-1.35,5.57,4.42,4.42,0,0,1-3.89,2q-5.07,0-5.07-7.2a9.91,9.91,0,0,1,1.37-5.7A4.54,4.54,0,0,1,141,334.93Z"/><path class="cls-5" d="M213.38,332.49l14.34-14a2.54,2.54,0,0,0,.75-2.19,2.59,2.59,0,0,0-1.35-1.9l-17.24-9.22a2.69,2.69,0,0,0-3.61,1,2.55,2.55,0,0,0,1.05,3.51l14.14,7.56-12.31,12-44.27-23.67,12.31-12,12.44,6.65a2.69,2.69,0,0,0,3.61-1,2.55,2.55,0,0,0-1.05-3.51L178,288.17a2.71,2.71,0,0,0-3.16.44l-14.34,14-14.34-14a2.71,2.71,0,0,0-3.16-.44L93.88,314.43a2.59,2.59,0,0,0-1.35,1.9,2.54,2.54,0,0,0,.75,2.19l14.34,14-14.34,14a2.54,2.54,0,0,0-.75,2.19,2.58,2.58,0,0,0,1.35,1.9l14.84,7.94V385a2.58,2.58,0,0,0,1.38,2.27l49.12,26.26a2.72,2.72,0,0,0,2.56,0l49.12-26.26a2.58,2.58,0,0,0,1.38-2.27V358.48l14.84-7.93a2.58,2.58,0,0,0,1.35-1.9,2.54,2.54,0,0,0-.75-2.19ZM160.5,355.8l-43.6-23.31,43.6-23.31,43.6,23.31Zm-16.69-62.16,12.31,12-44.27,23.67-12.31-12Zm-32,42.05,44.27,23.67-12.31,12L99.54,347.68ZM207,383.48,163.15,406.9V380.46a2.66,2.66,0,0,0-5.31,0V406.9L114,383.48V361.33l29,15.48a2.71,2.71,0,0,0,3.16-.44l14.34-14,14.34,14a2.71,2.71,0,0,0,3.16.44l29-15.48Zm-29.78-12.14-12.31-12,44.27-23.67,12.31,12Z"/><path class="cls-5" d="M200,305.85a2.5,2.5,0,1,0-1.77-.73A2.53,2.53,0,0,0,200,305.85Z"/><path class="cls-5" d="M160.5,368.85a3,3,0,1,0,2.12.88A3,3,0,0,0,160.5,368.85Z"/><path class="cls-5" d="M140,386.85a2.5,2.5,0,1,0,2.5,2.5A2.5,2.5,0,0,0,140,386.85Z"/><path class="cls-5" d="M125.33,370.74l-5.26-2.81a2.54,2.54,0,0,0-3.42,1,2.43,2.43,0,0,0,1,3.33l5.26,2.81a2.54,2.54,0,0,0,3.42-1A2.43,2.43,0,0,0,125.33,370.74Z"/><path class="cls-5" d="M134.27,384l-14.21-7.57a2.54,2.54,0,0,0-3.41,1,2.43,2.43,0,0,0,1,3.33l14.21,7.57a2.59,2.59,0,0,0,.86.28,2.52,2.52,0,0,0,2.56-1.25A2.43,2.43,0,0,0,134.27,384Z"/><path class="cls-4" d="M125.26,319h3.06v14.37h-3.06Z"/><path class="cls-4" d="M139.43,292.68q-2.18,0-2.18,5.29,0,5,2.12,5t2.09-5.12Q141.46,292.68,139.43,292.68Zm.13-2.3q5,0,5,7.33a9.79,9.79,0,0,1-1.34,5.57,4.42,4.42,0,0,1-3.89,2q-5.07,0-5.07-7.2a9.91,9.91,0,0,1,1.37-5.7A4.54,4.54,0,0,1,139.56,290.38Z"/><path class="cls-4" d="M166.7,320.49q-2.18,0-2.18,5.29,0,5,2.13,5t2.09-5.12Q168.73,320.49,166.7,320.49Zm.13-2.3q5,0,5,7.33a9.79,9.79,0,0,1-1.35,5.57,4.42,4.42,0,0,1-3.89,2q-5.07,0-5.06-7.2a9.9,9.9,0,0,1,1.37-5.7A4.54,4.54,0,0,1,166.83,318.19Z"/><path class="cls-4" d="M149.2,317.62h3.06V332H149.2Z"/><path class="cls-4" d="M175.43,328.5h3.06v14.37h-3.06Z"/><path class="cls-4" d="M152.63,275.48h3.06v14.37h-3.06Z"/><path class="cls-4" d="M190.26,319.25q-2.18,0-2.18,5.29,0,5,2.13,5t2.09-5.12Q192.29,319.25,190.26,319.25Zm.13-2.3q5,0,5,7.33a9.79,9.79,0,0,1-1.35,5.57,4.42,4.42,0,0,1-3.89,2q-5.07,0-5.07-7.2a9.9,9.9,0,0,1,1.37-5.7A4.54,4.54,0,0,1,190.39,317Z"/><path class="cls-4" d="M172.47,289.23h3.06V303.6h-3.06Z"/><path class="cls-4" d="M158.9,301.33q-2.18,0-2.18,5.29,0,5,2.13,5t2.09-5.12Q160.94,301.33,158.9,301.33ZM159,299q5,0,5,7.33a9.79,9.79,0,0,1-1.35,5.57,4.42,4.42,0,0,1-3.89,2q-5.07,0-5.07-7.2a9.91,9.91,0,0,1,1.37-5.7A4.54,4.54,0,0,1,159,299Z"/></svg>