<svg id="Camada_1" data-name="Camada 1" xmlns="http://www.w3.org/2000/svg" viewBox="0 0 960 720"><defs><style>.cls-1{fill:#faf8ed;}.cls-2,.cls-3,.cls-4{isolation:isolate;}.cls-3,.cls-4{font-size:128px;font-family:Arial-BoldMT, Arial;font-weight:700;}.cls-3,.cls-6{fill:#2f2b32;}.cls-4,.cls-5{fill:#15c0e5;}.cls-5{stroke:#15c0e5;stroke-linejoin:round;}</style></defs><title>Prancheta 1 cópia 2</title><rect class="cls-1" x="-76.01" y="-11" width="3044" height="756"/><g class="cls-2"><text class="cls-3" transform="translate(248.47 396.83)">Coders.</text><text class="cls-4" transform="translate(733.05 396.83)">IO</text></g><path class="cls-5" d="M163.21,343.83h3.06V358.2h-3.06Z"/><path class="cls-5" d="M140.87,337.2q-2.18,0-2.18,5.29,0,5,2.12,5t2.09-5.12Q142.9,337.2,140.87,337.2Zm.13-2.3q5,0,5,7.33a9.79,9.79,0,0,1-1.35,5.57,4.42,4.42,0,0,1-3.89,2q-5.07,0-5.07-7.2a9.91,9.91,0,0,1,1.37-5.7A4.54,4.54,0,0,1,141,334.9Z"/><path class="cls-6" d="M213.38,332.47l14.34-14a2.54,2.54,0,0,0,.75-2.19,2.59,2.59,0,0,0-1.35-1.9l-17.24-9.22a2.69,2.69,0,0,0-3.61,1,2.55,2.55,0,0,0,1.05,3.51l14.14,7.56-12.31,12L164.88,305.6l12.31-12,12.44,6.65a2.69,2.69,0,0,0,3.61-1,2.55,2.55,0,0,0-1.05-3.51L178,288.15a2.71,2.71,0,0,0-3.16.44l-14.34,14-14.34-14a2.71,2.71,0,0,0-3.16-.44L93.88,314.41a2.59,2.59,0,0,0-1.35,1.9,2.54,2.54,0,0,0,.75,2.19l14.34,14-14.34,14a2.54,2.54,0,0,0-.75,2.19,2.58,2.58,0,0,0,1.35,1.9l14.84,7.94V385a2.58,2.58,0,0,0,1.38,2.27l49.12,26.26a2.72,2.72,0,0,0,2.56,0l49.12-26.26a2.58,2.58,0,0,0,1.38-2.27V358.46l14.84-7.93a2.58,2.58,0,0,0,1.35-1.9,2.54,2.54,0,0,0-.75-2.19ZM160.5,355.78l-43.6-23.31,43.6-23.31,43.6,23.31Zm-16.69-62.16,12.31,12-44.27,23.67-12.31-12Zm-32,42.05,44.27,23.67-12.31,12L99.54,347.65ZM207,383.46l-43.81,23.42V380.44a2.66,2.66,0,0,0-5.31,0v26.43L114,383.46V361.3l29,15.48a2.71,2.71,0,0,0,3.16-.44l14.34-14,14.34,14a2.71,2.71,0,0,0,3.16.44l29-15.48Zm-29.78-12.14-12.31-12,44.27-23.67,12.31,12Z"/><path class="cls-6" d="M200,305.83a2.5,2.5,0,1,0-1.77-.73A2.53,2.53,0,0,0,200,305.83Z"/><path class="cls-6" d="M160.5,368.83a3,3,0,1,0,2.12.88A3,3,0,0,0,160.5,368.83Z"/><path class="cls-6" d="M140,386.83a2.5,2.5,0,1,0,2.5,2.5A2.5,2.5,0,0,0,140,386.83Z"/><path class="cls-6" d="M125.33,370.71l-5.26-2.81a2.54,2.54,0,0,0-3.42,1,2.43,2.43,0,0,0,1,3.33l5.26,2.81a2.54,2.54,0,0,0,3.42-1A2.43,2.43,0,0,0,125.33,370.71Z"/><path class="cls-6" d="M134.27,384l-14.21-7.57a2.54,2.54,0,0,0-3.41,1,2.43,2.43,0,0,0,1,3.33l14.21,7.57a2.59,2.59,0,0,0,.86.28,2.52,2.52,0,0,0,2.56-1.25A2.43,2.43,0,0,0,134.27,384Z"/><path class="cls-5" d="M125.26,319h3.06v14.37h-3.06Z"/><path class="cls-5" d="M139.43,292.66q-2.18,0-2.18,5.29,0,5,2.12,5t2.09-5.12Q141.46,292.66,139.43,292.66Zm.13-2.3q5,0,5,7.33a9.79,9.79,0,0,1-1.34,5.57,4.42,4.42,0,0,1-3.89,2q-5.07,0-5.07-7.2a9.91,9.91,0,0,1,1.37-5.7A4.54,4.54,0,0,1,139.56,290.36Z"/><path class="cls-5" d="M166.7,320.46q-2.18,0-2.18,5.29,0,5,2.13,5t2.09-5.12Q168.73,320.46,166.7,320.46Zm.13-2.3q5,0,5,7.33a9.79,9.79,0,0,1-1.35,5.57,4.42,4.42,0,0,1-3.89,2q-5.07,0-5.06-7.2a9.9,9.9,0,0,1,1.37-5.7A4.54,4.54,0,0,1,166.83,318.16Z"/><path class="cls-5" d="M149.21,317.6h3.06V332h-3.06Z"/><path class="cls-5" d="M175.43,328.48h3.06v14.37h-3.06Z"/><path class="cls-5" d="M152.63,275.46h3.06v14.37h-3.06Z"/><path class="cls-5" d="M190.26,319.23q-2.18,0-2.18,5.29,0,5,2.13,5t2.09-5.12Q192.29,319.23,190.26,319.23Zm.13-2.3q5,0,5,7.33a9.79,9.79,0,0,1-1.35,5.57,4.42,4.42,0,0,1-3.89,2q-5.07,0-5.07-7.2a9.9,9.9,0,0,1,1.37-5.7A4.54,4.54,0,0,1,190.39,316.93Z"/><path class="cls-5" d="M172.48,289.21h3.06v14.37h-3.06Z"/><path class="cls-5" d="M158.91,301.3q-2.18,0-2.18,5.29,0,5,2.13,5t2.09-5.12Q160.94,301.3,158.91,301.3ZM159,299q5,0,5,7.33a9.79,9.79,0,0,1-1.35,5.57,4.42,4.42,0,0,1-3.89,2q-5.07,0-5.07-7.2a9.91,9.91,0,0,1,1.37-5.7A4.54,4.54,0,0,1,159,299Z"/></svg>