<svg id="Camada_1" data-name="Camada 1" xmlns="http://www.w3.org/2000/svg" viewBox="0 0 960 720"><defs><style>.cls-1,.cls-2{isolation:isolate;}.cls-2{font-size:128px;font-family:Arial-BoldMT, Arial;font-weight:700;}.cls-2,.cls-3,.cls-4{fill:#2f2b32;}.cls-3{stroke:#2f2b32;stroke-linejoin:round;}</style></defs><title>Prancheta 1 cópia 14</title><g class="cls-1"><text class="cls-2" transform="translate(248.47 397.85)">Coders.</text><text class="cls-2" transform="translate(733.05 397.85)">IO</text></g><path class="cls-3" d="M163.21,344.85h3.06v14.37h-3.06Z"/><path class="cls-3" d="M140.87,338.23q-2.18,0-2.18,5.29,0,5,2.12,5t2.09-5.12Q142.9,338.23,140.87,338.23Zm.13-2.3q5,0,5,7.33a9.79,9.79,0,0,1-1.35,5.57,4.42,4.42,0,0,1-3.89,2q-5.07,0-5.07-7.2a9.91,9.91,0,0,1,1.37-5.7A4.54,4.54,0,0,1,141,335.93Z"/><path class="cls-4" d="M213.38,333.49l14.34-14a2.54,2.54,0,0,0,.75-2.19,2.59,2.59,0,0,0-1.35-1.9l-17.24-9.22a2.69,2.69,0,0,0-3.61,1,2.55,2.55,0,0,0,1.05,3.51l14.14,7.56-12.31,12-44.27-23.67,12.31-12,12.44,6.65a2.69,2.69,0,0,0,3.61-1,2.55,2.55,0,0,0-1.05-3.51L178,289.17a2.71,2.71,0,0,0-3.16.44l-14.34,14-14.34-14a2.71,2.71,0,0,0-3.16-.44L93.88,315.43a2.59,2.59,0,0,0-1.35,1.9,2.54,2.54,0,0,0,.75,2.19l14.34,14-14.34,14a2.54,2.54,0,0,0-.75,2.19,2.58,2.58,0,0,0,1.35,1.9l14.84,7.94V386a2.58,2.58,0,0,0,1.38,2.27l49.12,26.26a2.72,2.72,0,0,0,2.56,0l49.12-26.26a2.58,2.58,0,0,0,1.38-2.27V359.48l14.84-7.93a2.58,2.58,0,0,0,1.35-1.9,2.54,2.54,0,0,0-.75-2.19ZM160.5,356.8l-43.6-23.31,43.6-23.31,43.6,23.31Zm-16.69-62.16,12.31,12-44.27,23.67-12.31-12Zm-32,42.05,44.27,23.67-12.31,12L99.54,348.68ZM207,384.48,163.15,407.9V381.46a2.66,2.66,0,0,0-5.31,0V407.9L114,384.48V362.33l29,15.48a2.71,2.71,0,0,0,3.16-.44l14.34-14,14.34,14a2.71,2.71,0,0,0,3.16.44l29-15.48Zm-29.78-12.14-12.31-12,44.27-23.67,12.31,12Z"/><path class="cls-4" d="M200,306.85a2.5,2.5,0,1,0-1.77-.73A2.53,2.53,0,0,0,200,306.85Z"/><path class="cls-4" d="M160.5,369.85a3,3,0,1,0,2.12.88A3,3,0,0,0,160.5,369.85Z"/><path class="cls-4" d="M140,387.85a2.5,2.5,0,1,0,2.5,2.5A2.5,2.5,0,0,0,140,387.85Z"/><path class="cls-4" d="M125.33,371.74l-5.26-2.81a2.54,2.54,0,0,0-3.42,1,2.43,2.43,0,0,0,1,3.33l5.26,2.81a2.54,2.54,0,0,0,3.42-1A2.43,2.43,0,0,0,125.33,371.74Z"/><path class="cls-4" d="M134.27,385l-14.21-7.57a2.54,2.54,0,0,0-3.41,1,2.43,2.43,0,0,0,1,3.33l14.21,7.57a2.59,2.59,0,0,0,.86.28,2.52,2.52,0,0,0,2.56-1.25A2.43,2.43,0,0,0,134.27,385Z"/><path class="cls-3" d="M125.26,320h3.06v14.37h-3.06Z"/><path class="cls-3" d="M139.43,293.68q-2.18,0-2.18,5.29,0,5,2.12,5t2.09-5.12Q141.46,293.68,139.43,293.68Zm.13-2.3q5,0,5,7.33a9.79,9.79,0,0,1-1.34,5.57,4.42,4.42,0,0,1-3.89,2q-5.07,0-5.07-7.2a9.91,9.91,0,0,1,1.37-5.7A4.54,4.54,0,0,1,139.56,291.38Z"/><path class="cls-3" d="M166.7,321.49q-2.18,0-2.18,5.29,0,5,2.13,5t2.09-5.12Q168.73,321.49,166.7,321.49Zm.13-2.3q5,0,5,7.33a9.79,9.79,0,0,1-1.35,5.57,4.42,4.42,0,0,1-3.89,2q-5.07,0-5.06-7.2a9.9,9.9,0,0,1,1.37-5.7A4.54,4.54,0,0,1,166.83,319.19Z"/><path class="cls-3" d="M149.2,318.62h3.06V333H149.2Z"/><path class="cls-3" d="M175.43,329.5h3.06v14.37h-3.06Z"/><path class="cls-3" d="M152.63,276.48h3.06v14.37h-3.06Z"/><path class="cls-3" d="M190.26,320.25q-2.18,0-2.18,5.29,0,5,2.13,5t2.09-5.12Q192.29,320.25,190.26,320.25Zm.13-2.3q5,0,5,7.33a9.79,9.79,0,0,1-1.35,5.57,4.42,4.42,0,0,1-3.89,2q-5.07,0-5.07-7.2a9.9,9.9,0,0,1,1.37-5.7A4.54,4.54,0,0,1,190.39,318Z"/><path class="cls-3" d="M172.47,290.23h3.06V304.6h-3.06Z"/><path class="cls-3" d="M158.9,302.33q-2.18,0-2.18,5.29,0,5,2.13,5t2.09-5.12Q160.94,302.33,158.9,302.33ZM159,300q5,0,5,7.33a9.79,9.79,0,0,1-1.35,5.57,4.42,4.42,0,0,1-3.89,2q-5.07,0-5.07-7.2a9.91,9.91,0,0,1,1.37-5.7A4.54,4.54,0,0,1,159,300Z"/></svg>