<svg id="Camada_1" data-name="Camada 1" xmlns="http://www.w3.org/2000/svg" viewBox="0 0 960 720"><defs><style>.cls-1,.cls-2,.cls-3{isolation:isolate;}.cls-2,.cls-3{font-size:128px;font-family:Arial-BoldMT, Arial;font-weight:700;}.cls-2,.cls-5{fill:#faf8ed;}.cls-3,.cls-4{fill:#a7bf2e;}.cls-4{stroke:#a7bf2e;stroke-linejoin:round;}</style></defs><title>Prancheta 1 cópia 8</title><g class="cls-1"><text class="cls-2" transform="translate(248.47 397.67)">Coders.</text><text class="cls-3" transform="translate(733.05 397.67)">IO</text></g><path class="cls-4" d="M163.21,344.67h3.06V359h-3.06Z"/><path class="cls-4" d="M140.87,338q-2.18,0-2.18,5.29,0,5,2.12,5t2.09-5.12Q142.9,338,140.87,338Zm.13-2.3q5,0,5,7.33a9.79,9.79,0,0,1-1.35,5.57,4.42,4.42,0,0,1-3.89,2q-5.07,0-5.07-7.2a9.91,9.91,0,0,1,1.37-5.7A4.54,4.54,0,0,1,141,335.75Z"/><path class="cls-5" d="M213.38,333.31l14.34-14a2.54,2.54,0,0,0,.75-2.19,2.59,2.59,0,0,0-1.35-1.9L209.88,306a2.69,2.69,0,0,0-3.61,1,2.55,2.55,0,0,0,1.05,3.51l14.14,7.56-12.31,12-44.27-23.67,12.31-12,12.44,6.65a2.69,2.69,0,0,0,3.61-1,2.55,2.55,0,0,0-1.05-3.51L178,289a2.71,2.71,0,0,0-3.16.44l-14.34,14-14.34-14A2.71,2.71,0,0,0,143,289L93.88,315.25a2.59,2.59,0,0,0-1.35,1.9,2.54,2.54,0,0,0,.75,2.19l14.34,14-14.34,14a2.54,2.54,0,0,0-.75,2.19,2.58,2.58,0,0,0,1.35,1.9l14.84,7.94v26.52a2.58,2.58,0,0,0,1.38,2.27l49.12,26.26a2.72,2.72,0,0,0,2.56,0L210.9,388.1a2.58,2.58,0,0,0,1.38-2.27V359.3l14.84-7.93a2.58,2.58,0,0,0,1.35-1.9,2.54,2.54,0,0,0-.75-2.19ZM160.5,356.62l-43.6-23.31L160.5,310l43.6,23.31Zm-16.69-62.16,12.31,12-44.27,23.67-12.31-12Zm-32,42.05,44.27,23.67-12.31,12L99.54,348.49ZM207,384.3l-43.81,23.42V381.28a2.66,2.66,0,0,0-5.31,0v26.43L114,384.3V362.14l29,15.48a2.71,2.71,0,0,0,3.16-.44l14.34-14,14.34,14a2.71,2.71,0,0,0,3.16.44l29-15.48Zm-29.78-12.14-12.31-12,44.27-23.67,12.31,12Z"/><path class="cls-5" d="M200,306.67a2.5,2.5,0,1,0-1.77-.73A2.53,2.53,0,0,0,200,306.67Z"/><path class="cls-5" d="M160.5,369.67a3,3,0,1,0,2.12.88A3,3,0,0,0,160.5,369.67Z"/><path class="cls-5" d="M140,387.67a2.5,2.5,0,1,0,2.5,2.5A2.5,2.5,0,0,0,140,387.67Z"/><path class="cls-5" d="M125.33,371.56l-5.26-2.81a2.54,2.54,0,0,0-3.42,1,2.43,2.43,0,0,0,1,3.33l5.26,2.81a2.54,2.54,0,0,0,3.42-1A2.43,2.43,0,0,0,125.33,371.56Z"/><path class="cls-5" d="M134.27,384.81l-14.21-7.57a2.54,2.54,0,0,0-3.41,1,2.43,2.43,0,0,0,1,3.33l14.21,7.57a2.59,2.59,0,0,0,.86.28,2.52,2.52,0,0,0,2.56-1.25A2.43,2.43,0,0,0,134.27,384.81Z"/><path class="cls-4" d="M125.26,319.83h3.06V334.2h-3.06Z"/><path class="cls-4" d="M139.43,293.5q-2.18,0-2.18,5.29,0,5,2.12,5t2.09-5.12Q141.46,293.5,139.43,293.5Zm.13-2.3q5,0,5,7.33a9.79,9.79,0,0,1-1.34,5.57,4.42,4.42,0,0,1-3.89,2q-5.07,0-5.07-7.2a9.91,9.91,0,0,1,1.37-5.7A4.54,4.54,0,0,1,139.56,291.2Z"/><path class="cls-4" d="M166.7,321.31q-2.18,0-2.18,5.29,0,5,2.13,5t2.09-5.12Q168.73,321.31,166.7,321.31Zm.13-2.3q5,0,5,7.33a9.79,9.79,0,0,1-1.35,5.57,4.42,4.42,0,0,1-3.89,2q-5.07,0-5.06-7.2a9.9,9.9,0,0,1,1.37-5.7A4.54,4.54,0,0,1,166.83,319Z"/><path class="cls-4" d="M149.2,318.44h3.06v14.37H149.2Z"/><path class="cls-4" d="M175.43,329.32h3.06v14.37h-3.06Z"/><path class="cls-4" d="M152.63,276.3h3.06v14.37h-3.06Z"/><path class="cls-4" d="M190.26,320.07q-2.18,0-2.18,5.29,0,5,2.13,5t2.09-5.12Q192.29,320.07,190.26,320.07Zm.13-2.3q5,0,5,7.33a9.79,9.79,0,0,1-1.35,5.57,4.42,4.42,0,0,1-3.89,2q-5.07,0-5.07-7.2a9.9,9.9,0,0,1,1.37-5.7A4.54,4.54,0,0,1,190.39,317.77Z"/><path class="cls-4" d="M172.47,290.05h3.06v14.37h-3.06Z"/><path class="cls-4" d="M158.9,302.15q-2.18,0-2.18,5.29,0,5,2.13,5t2.09-5.12Q160.94,302.15,158.9,302.15Zm.13-2.3q5,0,5,7.33a9.79,9.79,0,0,1-1.35,5.57,4.42,4.42,0,0,1-3.89,2q-5.07,0-5.07-7.2a9.91,9.91,0,0,1,1.37-5.7A4.54,4.54,0,0,1,159,299.84Z"/></svg>