<svg id="Camada_1" data-name="Camada 1" xmlns="http://www.w3.org/2000/svg" viewBox="0 0 960 720"><defs><style>.cls-1{fill:#2f2b32;}.cls-2,.cls-3,.cls-4{isolation:isolate;}.cls-3,.cls-4{font-size:128px;font-family:Arial-BoldMT, Arial;font-weight:700;}.cls-3,.cls-6{fill:#faf8ed;}.cls-4,.cls-5{fill:#15c0e5;}.cls-5{stroke:#15c0e5;stroke-linejoin:round;}</style></defs><title>Prancheta 1 cópia 10</title><rect class="cls-1" x="-76.01" y="-11.54" width="3044" height="756"/><g class="cls-2"><text class="cls-3" transform="translate(248.47 397.01)">Coders.</text><text class="cls-4" transform="translate(733.06 397.01)">IO</text></g><path class="cls-5" d="M163.21,344h3.06v14.37h-3.06Z"/><path class="cls-5" d="M140.87,337.38q-2.18,0-2.18,5.29,0,5,2.12,5t2.09-5.12Q142.9,337.39,140.87,337.38Zm.13-2.3q5,0,5,7.33a9.79,9.79,0,0,1-1.35,5.57,4.42,4.42,0,0,1-3.89,2q-5.07,0-5.07-7.2a9.91,9.91,0,0,1,1.37-5.7A4.54,4.54,0,0,1,141,335.08Z"/><path class="cls-6" d="M213.38,332.65l14.34-14a2.54,2.54,0,0,0,.75-2.19,2.59,2.59,0,0,0-1.35-1.9l-17.24-9.22a2.69,2.69,0,0,0-3.61,1,2.55,2.55,0,0,0,1.05,3.51l14.14,7.56-12.31,12-44.27-23.67,12.31-12,12.44,6.65a2.69,2.69,0,0,0,3.61-1,2.55,2.55,0,0,0-1.05-3.51L178,288.33a2.71,2.71,0,0,0-3.16.44l-14.34,14-14.34-14a2.71,2.71,0,0,0-3.16-.44L93.88,314.59a2.59,2.59,0,0,0-1.35,1.9,2.54,2.54,0,0,0,.75,2.19l14.34,14-14.34,14a2.54,2.54,0,0,0-.75,2.19,2.58,2.58,0,0,0,1.35,1.9l14.84,7.94v26.52a2.58,2.58,0,0,0,1.38,2.27l49.12,26.26a2.72,2.72,0,0,0,2.56,0l49.12-26.26a2.58,2.58,0,0,0,1.38-2.27V358.64l14.84-7.93a2.58,2.58,0,0,0,1.35-1.9,2.54,2.54,0,0,0-.75-2.19ZM160.5,356l-43.6-23.31,43.6-23.31,43.6,23.31ZM143.81,293.8l12.31,12-44.27,23.67-12.31-12Zm-32,42.05,44.27,23.67-12.31,12L99.54,347.83ZM207,383.64l-43.81,23.42V380.62a2.66,2.66,0,0,0-5.31,0v26.43L114,383.64V361.48L143,377a2.71,2.71,0,0,0,3.16-.44l14.34-14,14.34,14A2.71,2.71,0,0,0,178,377l29-15.48ZM177.19,371.5l-12.31-12,44.27-23.67,12.31,12Z"/><path class="cls-6" d="M200,306a2.5,2.5,0,1,0-1.77-.73A2.53,2.53,0,0,0,200,306Z"/><path class="cls-6" d="M160.5,369a3,3,0,1,0,2.12.88A3,3,0,0,0,160.5,369Z"/><path class="cls-6" d="M140,387a2.5,2.5,0,1,0,2.5,2.5A2.5,2.5,0,0,0,140,387Z"/><path class="cls-6" d="M125.33,370.89l-5.26-2.81a2.54,2.54,0,0,0-3.42,1,2.43,2.43,0,0,0,1,3.33l5.26,2.81a2.54,2.54,0,0,0,3.42-1A2.43,2.43,0,0,0,125.33,370.89Z"/><path class="cls-6" d="M134.27,384.15l-14.21-7.57a2.54,2.54,0,0,0-3.41,1,2.43,2.43,0,0,0,1,3.33l14.21,7.57a2.59,2.59,0,0,0,.86.28,2.52,2.52,0,0,0,2.56-1.25A2.43,2.43,0,0,0,134.27,384.15Z"/><path class="cls-5" d="M125.26,319.17h3.06v14.37h-3.06Z"/><path class="cls-5" d="M139.43,292.84q-2.18,0-2.18,5.29,0,5,2.12,5t2.09-5.12Q141.46,292.84,139.43,292.84Zm.13-2.3q5,0,5,7.33a9.79,9.79,0,0,1-1.34,5.57,4.42,4.42,0,0,1-3.89,2q-5.07,0-5.07-7.2a9.91,9.91,0,0,1,1.37-5.7A4.54,4.54,0,0,1,139.56,290.54Z"/><path class="cls-5" d="M166.7,320.64q-2.18,0-2.18,5.29,0,5,2.13,5t2.09-5.12Q168.73,320.64,166.7,320.64Zm.13-2.3q5,0,5,7.33a9.79,9.79,0,0,1-1.35,5.57,4.42,4.42,0,0,1-3.89,2q-5.07,0-5.06-7.2a9.9,9.9,0,0,1,1.37-5.7A4.54,4.54,0,0,1,166.83,318.34Z"/><path class="cls-5" d="M149.21,317.78h3.06v14.37h-3.06Z"/><path class="cls-5" d="M175.43,328.66h3.06V343h-3.06Z"/><path class="cls-5" d="M152.63,275.64h3.06V290h-3.06Z"/><path class="cls-5" d="M190.26,319.41q-2.18,0-2.18,5.29,0,5,2.13,5t2.09-5.12Q192.29,319.41,190.26,319.41Zm.13-2.3q5,0,5,7.33A9.79,9.79,0,0,1,194,330a4.42,4.42,0,0,1-3.89,2q-5.07,0-5.07-7.2a9.9,9.9,0,0,1,1.37-5.7A4.54,4.54,0,0,1,190.39,317.11Z"/><path class="cls-5" d="M172.48,289.39h3.06v14.37h-3.06Z"/><path class="cls-5" d="M158.91,301.48q-2.18,0-2.18,5.29,0,5,2.13,5t2.09-5.12Q160.94,301.48,158.91,301.48Zm.13-2.3q5,0,5,7.33a9.79,9.79,0,0,1-1.35,5.57,4.42,4.42,0,0,1-3.89,2q-5.07,0-5.07-7.2a9.91,9.91,0,0,1,1.37-5.7A4.54,4.54,0,0,1,159,299.18Z"/></svg>