<svg id="Layer_1" enable-background="new 0 0 496 496" height="512" viewBox="0 0 496 496" width="512" xmlns="http://www.w3.org/2000/svg"><path d="m480 80v336c0 17.67-14.33 32-32 32h-400c-17.67 0-32-14.33-32-32v-336c0-17.67 14.33-32 32-32h400c17.67 0 32 14.33 32 32z" fill="#b9dcff"/><path d="m448.107 98h-350.107c-17.673 0-32 14.327-32 32v286.107c0 32.544-50 34.259-50-.107v-336c0-17.673 14.327-32 32-32h400c34.366 0 32.65 50 .107 50z" fill="#d1e7ff"/><path d="m480 80v64h-464v-64c0-17.67 14.33-32 32-32h400c17.67 0 32 14.33 32 32z" fill="#a2d0ff"/><path d="m448.107 98h-350.107c-17.673 0-32 14.327-32 32v14h-50v-64c0-17.673 14.327-32 32-32h400c34.366 0 32.65 50 .107 50z" fill="#b9dcff"/><path d="m496 80v112c0 8.837-7.164 16-16 16s-16-7.163-16-16v-112c0-8.823-7.178-16-16-16h-400c-8.822 0-16 7.177-16 16v48h400c8.836 0 16 7.164 16 16s-7.164 16-16 16h-400v32c0 8.837-7.164 16-16 16s-16-7.163-16-16v-112c0-26.467 21.533-48 48-48h400c26.467 0 48 21.533 48 48zm-16 290c-8.836 0-16 7.163-16 16v30c0 8.823-7.178 16-16 16h-400c-8.822 0-16-7.177-16-16v-30c0-8.837-7.164-16-16-16s-16 7.163-16 16v30c0 26.467 21.533 48 48 48h400c26.467 0 48-21.533 48-48v-30c0-8.837-7.164-16-16-16zm-443-141.845c-8.836 0-16 7.163-16 16v89.689c0 8.837 7.164 16 16 16s16-7.163 16-16v-28.844h14v28.845c0 8.837 7.164 16 16 16s16-7.163 16-16v-89.689c0-8.837-7.164-16-16-16s-16 7.163-16 16v28.844h-14v-28.845c0-8.836-7.164-16-16-16zm117 121.845c8.836 0 16-7.163 16-16v-74h8c8.836 0 16-7.164 16-16s-7.164-16-16-16h-48c-8.836 0-16 7.164-16 16s7.164 16 16 16h8v74c0 8.837 7.164 16 16 16zm164.311-.155c-8.836 0-16-7.163-16-16v-89.689c0-8.837 7.164-16 16-16h18.203c24.635 0 44.676 20.042 44.676 44.677 0 25.159-18.853 45.358-46.879 45.358v15.655c0 8.835-7.164 15.999-16 15.999zm18.202-89.69h-2.203v26.034h2.203c6.481 0 12.676-4.948 12.676-13.358 0-6.989-5.686-12.676-12.676-12.676zm100.183 57.69h-23.696c-8.836 0-16 7.163-16 16s7.164 16 16 16h23.696c20.746 0 38.304-16.716 38.304-38.541 0-19.727-15.298-38.304-39.696-38.304-3.24 0-6.304-2.508-6.304-6.541 0-3.476 2.828-6.304 6.304-6.304h23.696c8.836 0 16-7.163 16-16s-7.164-16-16-16h-23.696c-20.746 0-38.304 16.716-38.304 38.541 0 19.727 15.298 38.304 39.696 38.304 3.24 0 6.304 2.508 6.304 6.541 0 3.476-2.828 6.304-6.304 6.304zm-188.696 32.155c8.836 0 16-7.163 16-16v-74h8c8.836 0 16-7.164 16-16s-7.164-16-16-16h-48c-8.836 0-16 7.164-16 16s7.164 16 16 16h8v74c0 8.837 7.164 16 16 16zm-187.13-269.69c-11.771 2.542-16.208 15.619-10.17 24.57 3.167 4.803 8.892 7.615 14.87 7.04 22.038-2.121 17.176-35.811-4.7-31.61zm45.01.92c-13.012 5.42-13.239 24.018 0 29.54 7.112 2.963 15.283.384 19.42-5.89 8.852-13.122-4.982-29.665-19.42-23.65zm40.82 5.89c-4.999 7.41-2.75 17.457 4.42 22.18 11.562 7.795 27.311-2.192 24.57-16.43-3.109-14.434-21.43-17.217-28.99-5.75z" fill="#2e58ff"/></svg>