<?xml version="1.0" standalone="no"?>
<!DOCTYPE svg PUBLIC "-//W3C//DTD SVG 20010904//EN"
 "http://www.w3.org/TR/2001/REC-SVG-20010904/DTD/svg10.dtd">
<svg version="1.0" xmlns="http://www.w3.org/2000/svg"
 width="640.000000pt" height="1280.000000pt" viewBox="0 0 640.000000 1280.000000"
 preserveAspectRatio="xMidYMid meet">
<g transform="translate(0.000000,1280.000000) scale(0.100000,-0.100000)"
fill="#000000" stroke="none">
<path d="M3158 12775 c-63 -43 -68 -123 -9 -164 41 -29 64 -26 107 14 33 31
36 39 31 72 -4 27 -17 48 -43 71 -21 17 -40 32 -43 32 -4 0 -23 -11 -43 -25z"/>
<path d="M3316 12450 c-102 -31 -136 -186 -56 -254 61 -51 144 -43 200 20 25
29 30 43 30 87 0 104 -83 174 -174 147z"/>
<path d="M2860 12024 c-75 -20 -126 -52 -188 -118 -159 -168 -146 -391 34
-555 86 -79 131 -96 249 -96 91 0 106 3 165 31 334 159 292 646 -65 738 -72
19 -123 19 -195 0z m34 -135 c81 -64 70 -167 -22 -206 -72 -30 -152 30 -152
114 0 91 104 147 174 92z"/>
<path d="M3177 11036 c-51 -19 -72 -39 -102 -99 -26 -54 -32 -116 -15 -161 16
-44 89 -114 136 -132 87 -33 185 2 241 88 24 36 28 51 28 118 0 67 -3 82 -28
119 -18 27 -44 50 -70 62 -50 22 -135 24 -190 5z"/>
<path d="M2960 10270 c-246 -24 -367 -51 -428 -97 -58 -44 -59 -47 -57 -403
l2 -325 54 -120 54 -120 -1 -165 c-2 -181 -26 -392 -75 -660 -61 -336 -115
-500 -419 -1275 -148 -377 -159 -413 -170 -540 -6 -60 -15 -159 -20 -220 -6
-60 -23 -175 -40 -254 -91 -444 -123 -941 -85 -1331 9 -85 14 -207 13 -270 -7
-346 -8 -339 107 -1045 123 -755 129 -810 129 -1195 1 -294 0 -309 -26 -430
-15 -69 -48 -192 -73 -275 -116 -380 -159 -608 -160 -835 0 -135 3 -165 23
-230 21 -66 31 -81 95 -145 160 -159 474 -263 952 -315 158 -18 233 -21 355
-17 575 21 913 83 1163 215 107 55 208 144 243 214 60 119 55 367 -16 713 -24
118 -39 176 -113 430 -149 513 -143 755 47 1917 96 585 98 595 101 923 2 160
8 342 14 405 15 163 13 496 -4 693 -23 260 -51 438 -111 703 -31 139 -33 161
-28 255 8 136 -11 208 -146 554 -248 632 -381 1017 -425 1225 -62 299 -97 578
-99 795 -1 143 0 153 27 213 79 181 80 185 85 279 3 67 -1 114 -13 168 -18 74
-18 76 5 151 42 144 14 286 -68 331 -91 52 -294 82 -582 88 -118 2 -258 0
-310 -5z m193 -558 c18 -18 22 -33 20 -72 -3 -60 -38 -147 -66 -162 -30 -16
-124 -12 -152 6 -32 21 -48 84 -43 165 6 86 17 94 131 89 74 -4 91 -8 110 -26z
m-51 -553 c17 -9 19 -17 14 -52 -3 -23 -22 -287 -41 -587 -76 -1166 -131
-1880 -156 -2014 -14 -79 -29 -86 -171 -86 -135 0 -158 7 -158 50 0 16 34 209
75 427 180 958 244 1427 279 2031 9 172 16 226 27 233 20 12 106 11 131 -2z
m-281 -2908 c33 -4 56 -12 63 -23 12 -20 -8 -206 -25 -223 -6 -6 -65 -10 -144
-9 -192 2 -207 15 -185 165 17 121 6 112 131 104 60 -4 132 -10 160 -14z
m-138 -1995 c59 -8 113 -19 121 -25 18 -15 35 -199 96 -1046 55 -761 61 -867
67 -1175 8 -403 -12 -575 -98 -855 -54 -173 -86 -215 -166 -215 -62 0 -108 24
-129 67 -25 55 -13 137 55 377 96 332 96 336 95 611 -1 132 -7 317 -13 410
-26 367 -129 1524 -156 1740 -7 60 -11 113 -9 117 6 10 8 10 137 -6z m43
-3858 c37 -13 70 -29 72 -36 6 -20 -61 -79 -104 -91 -72 -19 -142 17 -164 85
-8 24 -8 39 0 55 11 20 17 21 71 16 32 -4 88 -17 125 -29z"/>
</g>
</svg>
