<svg id="Layer_1" enable-background="new 0 0 512 512" height="512" viewBox="0 0 512 512" width="512" xmlns="http://www.w3.org/2000/svg"><g id="XMLID_1283_"><g id="XMLID_1395_"><path id="XMLID_1396_" d="m112 44c-2.63 0-5.21 1.069-7.07 2.93s-2.93 4.44-2.93 7.07 1.069 5.21 2.93 7.069c1.86 1.861 4.44 2.931 7.07 2.931s5.21-1.07 7.069-2.931c1.861-1.859 2.931-4.439 2.931-7.069s-1.07-5.21-2.931-7.07c-1.859-1.861-4.439-2.93-7.069-2.93z"/><path id="XMLID_1492_" d="m64 44c-2.63 0-5.21 1.069-7.07 2.93s-2.93 4.429-2.93 7.07c0 2.63 1.069 5.21 2.93 7.069 1.86 1.861 4.44 2.931 7.07 2.931s5.21-1.07 7.069-2.931c1.861-1.859 2.931-4.439 2.931-7.069s-1.07-5.21-2.931-7.07c-1.859-1.861-4.439-2.93-7.069-2.93z"/><path id="XMLID_1494_" d="m160 44c-2.63 0-5.21 1.069-7.07 2.93s-2.93 4.44-2.93 7.07 1.069 5.21 2.93 7.069c1.86 1.861 4.44 2.931 7.07 2.931s5.21-1.07 7.069-2.931c1.861-1.859 2.931-4.439 2.931-7.069s-1.07-5.21-2.931-7.07c-1.859-1.861-4.429-2.93-7.069-2.93z"/><path id="XMLID_1500_" d="m458 272.073v-230.073c0-23.159-18.841-42-42-42h-374c-23.159 0-42 18.841-42 42v388c0 23.159 18.841 42 42 42h78.113c5.522 0 10-4.478 10-10s-4.478-10-10-10h-78.113c-12.131 0-22-9.869-22-22v-322h418v151.827c-17.79-8.843-37.822-13.827-59-13.827-73.337 0-133 59.663-133 133 0 26.94 8.059 52.03 21.882 73h-57.769c-5.522 0-10 4.478-10 10s4.478 10 10 10h73.908c24.157 24.666 57.808 40 94.979 40 73.337 0 133-59.663 133-133 0-43.777-21.263-82.677-54-106.927zm-438-184.073v-46c0-12.131 9.869-22 22-22h374c12.131 0 22 9.869 22 22v46zm359 404c-62.309 0-113-50.691-113-113s50.691-113 113-113 113 50.691 113 113-50.691 113-113 113z"/><path id="XMLID_1508_" d="m337.107 342.393c-3.906-3.904-10.236-3.904-14.143 0l-29.536 29.536c-3.905 3.905-3.905 10.237 0 14.143l29.536 29.536c1.953 1.952 4.512 2.929 7.071 2.929s5.118-.977 7.071-2.929c3.905-3.905 3.905-10.237 0-14.143l-22.463-22.465 22.465-22.465c3.905-3.905 3.905-10.237-.001-14.142z"/><path id="XMLID_1511_" d="m464.74 371.929-29.536-29.536c-3.906-3.904-10.236-3.904-14.143 0-3.905 3.905-3.905 10.237 0 14.143l22.465 22.464-22.465 22.465c-3.905 3.905-3.905 10.237 0 14.143 1.953 1.952 4.512 2.929 7.071 2.929s5.118-.977 7.071-2.929l29.536-29.536c3.907-3.906 3.907-10.238.001-14.143z"/><path id="XMLID_1518_" d="m392.207 330.737c-5.33-1.447-10.823 1.7-12.27 7.031l-20.96 77.225c-1.447 5.33 1.701 10.823 7.031 12.27.877.238 1.758.353 2.625.353 4.403 0 8.437-2.931 9.645-7.384l20.96-77.225c1.448-5.33-1.701-10.823-7.031-12.27z"/><path id="XMLID_1519_" d="m66 308h138.854c5.522 0 10-4.478 10-10s-4.478-10-10-10h-138.854c-5.522 0-10 4.478-10 10s4.478 10 10 10z"/><path id="XMLID_1520_" d="m58.93 257.069c1.86 1.861 4.44 2.931 7.07 2.931s5.21-1.07 7.069-2.931c1.861-1.859 2.931-4.439 2.931-7.069s-1.07-5.21-2.931-7.07c-1.859-1.861-4.439-2.93-7.069-2.93s-5.21 1.069-7.07 2.93-2.93 4.44-2.93 7.07 1.069 5.21 2.93 7.069z"/><path id="XMLID_1522_" d="m255.749 240h-144.749c-5.522 0-10 4.478-10 10s4.478 10 10 10h144.749c5.522 0 10-4.478 10-10s-4.478-10-10-10z"/><path id="XMLID_1523_" d="m66 356h33.028c5.522 0 10-4.478 10-10s-4.478-10-10-10h-33.028c-5.522 0-10 4.478-10 10s4.478 10 10 10z"/><path id="XMLID_1524_" d="m204.854 336h-57.854c-5.522 0-10 4.478-10 10s4.478 10 10 10h57.854c5.522 0 10-4.478 10-10s-4.478-10-10-10z"/><path id="XMLID_1525_" d="m66 404h138.854c5.522 0 10-4.478 10-10s-4.478-10-10-10h-138.854c-5.522 0-10 4.478-10 10s4.478 10 10 10z"/><path id="XMLID_1528_" d="m66 212h47.438c5.522 0 10-4.478 10-10s-4.478-10-10-10h-47.438c-5.522 0-10 4.478-10 10s4.478 10 10 10z"/><path id="XMLID_1530_" d="m153.062 202c0 5.522 4.478 10 10 10h92.688c5.522 0 10-4.478 10-10s-4.478-10-10-10h-92.688c-5.523 0-10 4.478-10 10z"/><path id="XMLID_1531_" d="m290.5 202c0 5.522 4.478 10 10 10h91.5c5.522 0 10-4.478 10-10s-4.478-10-10-10h-91.5c-5.522 0-10 4.478-10 10z"/><path id="XMLID_1532_" d="m392 164c5.522 0 10-4.478 10-10s-4.478-10-10-10h-58.916c-5.522 0-10 4.478-10 10s4.478 10 10 10z"/><path id="XMLID_1533_" d="m147 144h-81c-5.522 0-10 4.478-10 10s4.478 10 10 10h81c5.522 0 10-4.478 10-10s-4.478-10-10-10z"/><path id="XMLID_1534_" d="m288.333 144h-90.98c-5.522 0-10 4.478-10 10s4.478 10 10 10h90.98c5.522 0 10-4.478 10-10s-4.478-10-10-10z"/><path id="XMLID_1535_" d="m165.109 452c-2.63 0-5.21 1.069-7.069 2.93-1.86 1.86-2.931 4.44-2.931 7.07s1.07 5.21 2.931 7.069c1.859 1.86 4.439 2.931 7.069 2.931 2.631 0 5.21-1.07 7.07-2.931 1.87-1.859 2.93-4.439 2.93-7.069s-1.06-5.21-2.93-7.07c-1.86-1.861-4.429-2.93-7.07-2.93z"/></g></g></svg>