<svg id="_x31_0_x5F_commandments" enable-background="new 0 0 300 300" height="512" viewBox="0 0 300 300" width="512" xmlns="http://www.w3.org/2000/svg"><path d="m211.046 80.296c-27.57 0-50 22.43-50 50v4.484l-8.383-20.741c-5.004-12.383-14.531-22.075-26.825-27.293-12.294-5.215-25.884-5.334-38.268-.33-25.562 10.331-37.952 39.531-27.622 65.093l42.716 105.695c.397.983 1.17 1.769 2.146 2.184.499.211 1.03.317 1.562.317.509 0 1.018-.097 1.499-.291l53.174-21.49v6.373c0 2.209 1.791 4 4 4h92c2.209 0 4-1.791 4-4v-114c.001-27.571-22.428-50.001-49.999-50.001zm-102.463 170.201-41.216-101.987c-4.204-10.4-4.105-21.816.276-32.144 4.383-10.327 12.524-18.33 22.926-22.533 10.401-4.205 21.817-4.105 32.145.277 10.327 4.382 18.329 12.524 22.532 22.926l15.801 39.096v42.961l-48.12 19.448c-2.048.828-3.037 3.159-2.21 5.208.63 1.557 2.128 2.502 3.71 2.502.499 0 1.007-.094 1.498-.292l45.122-18.236v21.57zm144.463-10.201h-84v-84.325c.043-.339.047-.683 0-1.029v-24.646c0-23.159 18.841-42 42-42s42 18.841 42 42z"/><path d="m106.701 139.085c-.828-2.048-3.158-3.036-5.208-2.21l-18.543 7.494c-2.048.828-3.037 3.159-2.21 5.208.63 1.557 2.128 2.502 3.71 2.502.499 0 1.007-.094 1.498-.292l18.543-7.494c2.047-.828 3.037-3.159 2.21-5.208z"/><path d="m143.864 145.638c-.828-2.047-3.16-3.036-5.208-2.21l-48.212 19.484c-2.048.828-3.037 3.159-2.21 5.208.63 1.557 2.128 2.502 3.71 2.502.499 0 1.007-.094 1.498-.292l48.212-19.484c2.048-.828 3.037-3.159 2.21-5.208z"/><path d="m151.357 164.181c-.829-2.047-3.159-3.035-5.208-2.21l-48.211 19.484c-2.048.828-3.037 3.159-2.21 5.208.63 1.557 2.128 2.502 3.71 2.502.499 0 1.007-.094 1.498-.292l48.211-19.484c2.048-.828 3.037-3.16 2.21-5.208z"/><path d="m158.851 182.724c-.828-2.048-3.158-3.036-5.208-2.21l-48.211 19.484c-2.048.828-3.037 3.159-2.21 5.208.63 1.557 2.128 2.502 3.71 2.502.499 0 1.007-.094 1.498-.292l48.211-19.484c2.048-.828 3.037-3.16 2.21-5.208z"/><path d="m237.046 132.296h-20c-2.209 0-4 1.791-4 4s1.791 4 4 4h20c2.209 0 4-1.791 4-4s-1.791-4-4-4z"/><path d="m237.046 152.296h-52c-2.209 0-4 1.791-4 4s1.791 4 4 4h52c2.209 0 4-1.791 4-4s-1.791-4-4-4z"/><path d="m237.046 172.296h-52c-2.209 0-4 1.791-4 4s1.791 4 4 4h52c2.209 0 4-1.791 4-4s-1.791-4-4-4z"/><path d="m237.046 192.296h-52c-2.209 0-4 1.791-4 4s1.791 4 4 4h52c2.209 0 4-1.791 4-4s-1.791-4-4-4z"/><path d="m237.046 212.296h-52c-2.209 0-4 1.791-4 4s1.791 4 4 4h52c2.209 0 4-1.791 4-4s-1.791-4-4-4z"/><path d="m213.046 72.296c2.209 0 4-1.791 4-4v-24c0-2.209-1.791-4-4-4s-4 1.791-4 4v24c0 2.209 1.791 4 4 4z"/><path d="m231.046 74.296c1.023 0 2.048-.391 2.828-1.172l14-14c1.562-1.562 1.562-4.095 0-5.656-1.561-1.562-4.096-1.562-5.656 0l-14 14c-1.562 1.562-1.562 4.095 0 5.656.78.781 1.805 1.172 2.828 1.172z"/><path d="m192.218 73.124c.78.781 1.805 1.172 2.828 1.172s2.048-.391 2.828-1.172c1.562-1.562 1.562-4.095 0-5.656l-14-14c-1.561-1.562-4.096-1.562-5.656 0-1.562 1.562-1.562 4.095 0 5.656z"/><path d="m73.409 72.995c.625 1.565 2.127 2.519 3.716 2.519.493 0 .995-.092 1.481-.286 2.052-.818 3.052-3.146 2.232-5.197l-8.896-22.291c-.819-2.052-3.145-3.054-5.197-2.232-2.052.818-3.052 3.146-2.232 5.197z"/><path d="m93.004 70.374c.514.221 1.05.325 1.576.325 1.551 0 3.026-.907 3.678-2.423l7.813-18.191c.871-2.029-.067-4.382-2.098-5.254-2.03-.871-4.381.067-5.254 2.098l-7.812 18.191c-.872 2.029.067 4.382 2.097 5.254z"/><path d="m61.145 84.043c1.551 0 3.026-.907 3.677-2.422.872-2.03-.066-4.383-2.096-5.254l-18.192-7.814c-2.035-.876-4.383.067-5.254 2.096-.872 2.03.066 4.383 2.096 5.254l18.192 7.814c.515.221 1.051.326 1.577.326z"/></svg>