<?xml version="1.0"?>
<svg xmlns="http://www.w3.org/2000/svg" viewBox="0 0 512 512" width="512" height="512"><g id="Filled_outline" data-name="Filled outline"><polygon points="328 408 296 408 296 428.002 328 440 328 408" style="fill:#fec093"/><path d="M244.448,368a10.931,10.931,0,0,0-7.3,2.63A19.7,19.7,0,0,1,224,376c-13.255,0-24-14.327-24-32s10.745-32,24-32a19.706,19.706,0,0,1,13.15,5.37,10.929,10.929,0,0,0,7.3,2.63A11.552,11.552,0,0,0,256,308.448V256H203.552A11.552,11.552,0,0,1,192,244.448a10.929,10.929,0,0,1,2.63-7.3A19.706,19.706,0,0,0,200,224c0-13.255-14.327-24-32-24s-32,10.745-32,24a19.7,19.7,0,0,0,5.37,13.15,10.931,10.931,0,0,1,2.63,7.3A11.552,11.552,0,0,1,132.448,256H80V392a32,32,0,0,0,32,32H256V379.552A11.552,11.552,0,0,0,244.448,368Z" style="fill:#ffb531"/><path d="M312,168c0,17.67-10.75,32-24,32a19.709,19.709,0,0,1-13.15-5.37,10.942,10.942,0,0,0-7.3-2.63A11.549,11.549,0,0,0,256,203.55V256H203.55A11.549,11.549,0,0,1,192,244.45a10.942,10.942,0,0,1,2.63-7.3A19.709,19.709,0,0,0,200,224c0-13.25-14.33-24-32-24s-32,10.75-32,24a19.709,19.709,0,0,0,5.37,13.15,10.942,10.942,0,0,1,2.63,7.3A11.549,11.549,0,0,1,132.45,256H80V120a31.981,31.981,0,0,1,32-32H256v44.45A11.549,11.549,0,0,0,267.55,144a10.942,10.942,0,0,0,7.3-2.63A19.709,19.709,0,0,1,288,136C301.25,136,312,150.33,312,168Z" style="fill:#348fd9"/><path d="M400,88H256v44.448A11.552,11.552,0,0,0,267.552,144a10.931,10.931,0,0,0,7.3-2.63A19.7,19.7,0,0,1,288,136c13.255,0,24,14.327,24,32s-10.745,32-24,32a19.706,19.706,0,0,1-13.15-5.37,10.929,10.929,0,0,0-7.3-2.63A11.552,11.552,0,0,0,256,203.552V256h52.448A11.552,11.552,0,0,1,320,267.552a10.931,10.931,0,0,1-2.63,7.3A19.7,19.7,0,0,0,312,288c0,13.255,14.327,24,32,24s32-10.745,32-24a19.7,19.7,0,0,0-5.37-13.15,10.932,10.932,0,0,1-2.63-7.3h0A11.552,11.552,0,0,1,379.552,256H432V120A32,32,0,0,0,400,88Z" style="fill:#4db7e5"/><path d="M422.231,278.284a11.773,11.773,0,0,0-15.28,6.659h0a11.2,11.2,0,0,0-.233,7.925,20.185,20.185,0,0,1,.181,14.518c-4.955,12.606-22.566,17.458-39.337,10.837s-26.349-22.206-21.4-34.812a20.116,20.116,0,0,1,10.012-10.494,11.17,11.17,0,0,0,5.223-5.956,11.815,11.815,0,0,0-6.644-15.313L304.989,232l-19.6,49.879a11.775,11.775,0,0,1-15.28,6.659,11.156,11.156,0,0,1-5.942-5.236,20.119,20.119,0,0,0-10.471-10.033c-12.578-4.965-28.13,4.635-34.736,21.442s-1.765,34.458,10.813,39.424a20.057,20.057,0,0,0,14.486-.181,11.119,11.119,0,0,1,7.908.233,11.814,11.814,0,0,1,6.644,15.313l-16.614,42.271,136.646,53.944a32.613,32.613,0,0,0,42.327-18.445L472,297.932Z" style="fill:#d75246"/><path d="M216,24V80H184V71.6a15.757,15.757,0,0,0-1.95-7.6,16.043,16.043,0,0,0-16.74-8.05C157.45,57.22,152,64.54,152,72.45v54.84c0,7.9-5.45,15.22-13.31,16.49A15.966,15.966,0,0,1,120,128.13a16,16,0,0,1-32,0,16,16,0,0,1-32,0,15.64,15.64,0,0,1-2.57,8.63,16,16,0,0,1-14.53,7.2c-8.58-.57-14.9-8.31-14.9-16.83V24Z" style="fill:#fec9a3"/><path d="M216,64V80H184V71.6a15.757,15.757,0,0,0-1.95-7.6Z" style="fill:#fec093"/><path d="M488,216H432V184h8.4a15.757,15.757,0,0,0,7.6-1.95,16.043,16.043,0,0,0,8.05-16.74c-1.27-7.86-8.59-13.31-16.5-13.31H384.71c-7.9,0-15.22-5.45-16.49-13.31A15.966,15.966,0,0,1,383.87,120a16,16,0,0,1,0-32,16,16,0,0,1,0-32,15.64,15.64,0,0,1-8.63-2.57,16,16,0,0,1-7.2-14.53c.57-8.58,8.31-14.9,16.83-14.9H488Z" style="fill:#fec9a3"/><path d="M448,216H432V184h8.4a15.757,15.757,0,0,0,7.6-1.95Z" style="fill:#fec093"/><path d="M24,296H80v32H71.6a15.757,15.757,0,0,0-7.6,1.95,16.043,16.043,0,0,0-8.05,16.74c1.27,7.86,8.59,13.31,16.5,13.31h54.84c7.9,0,15.22,5.45,16.49,13.31A15.966,15.966,0,0,1,128.13,392a16,16,0,0,1,0,32,16,16,0,0,1,0,32,15.64,15.64,0,0,1,8.63,2.57,16,16,0,0,1,7.2,14.53c-.57,8.58-8.31,14.9-16.83,14.9H24Z" style="fill:#fec9a3"/><path d="M64,296H80v32H71.6a15.757,15.757,0,0,0-7.6,1.95Z" style="fill:#fec093"/><path d="M296,488V428l32,12v.4a15.757,15.757,0,0,0,1.95,7.6,16.043,16.043,0,0,0,16.74,8.05c7.86-1.27,13.31-8.59,13.31-16.5V384.71c0-7.9,5.45-15.22,13.31-16.49A15.966,15.966,0,0,1,392,383.87a16,16,0,0,1,32,0,16,16,0,0,1,32,0,15.64,15.64,0,0,1,2.57-8.63,16,16,0,0,1,14.53-7.2c8.58.57,14.9,8.31,14.9,16.83V488Z" style="fill:#fec9a3"/><path d="M192,344h16c0,7.038,2.137,13.739,5.862,18.386C215.543,364.479,219.1,368,224,368v16c-8.576,0-16.608-4.12-22.617-11.6C195.331,364.851,192,354.767,192,344ZM16,127.126V24a8,8,0,0,1,8-8H216a8,8,0,0,1,8,8V80h32a8,8,0,0,1,8,8v44.45a3.554,3.554,0,0,0,3.55,3.55,3.082,3.082,0,0,0,1.985-.608A27.578,27.578,0,0,1,288,128c17.645,0,32,17.944,32,40s-14.355,40-32,40a27.591,27.591,0,0,1-18.473-7.4,3.076,3.076,0,0,0-1.977-.6,3.554,3.554,0,0,0-3.55,3.55V240H248V203.55A19.572,19.572,0,0,1,267.55,184a20.292,20.292,0,0,1,12.616,4.652A11.732,11.732,0,0,0,288,192c8.673,0,16-10.99,16-24s-7.327-24-16-24a11.721,11.721,0,0,0-7.827,3.342c-6.642,5.908-17.984,5.873-24.855.349A19.686,19.686,0,0,1,248,132.45V96H160v31.285c0,12.066-8.615,22.553-20.04,24.4a24.18,24.18,0,0,1-19.566-5.415q-.2-.174-.4-.35a24.059,24.059,0,0,1-31.986,0,24.075,24.075,0,0,1-32,0,24,24,0,0,1-17.636,6.031C25.826,151.114,16,140.212,16,127.126ZM176,71.6a7.816,7.816,0,0,0-2.768-5.951,8.109,8.109,0,0,0-6.645-1.8c-3.694.6-6.587,4.373-6.587,8.6V80h16ZM32,127.126c0,4.611,3.333,8.583,7.429,8.854a8.1,8.1,0,0,0,7.308-3.6A7.728,7.728,0,0,0,48,128.135V88H64v40.135A7.942,7.942,0,0,0,72,136a8.029,8.029,0,0,0,8-7.865V88H96v40.135a8,8,0,0,0,16,0V88h16v40.135a8.078,8.078,0,0,0,9.413,7.75c3.694-.6,6.587-4.373,6.587-8.6V72.445c0-12.065,8.615-22.552,20.04-24.395a24.175,24.175,0,0,1,19.565,5.415A23.788,23.788,0,0,1,192,71.6v7.865h16V32H32ZM496,24V168H480V32H384.875c-4.612,0-8.584,3.333-8.856,7.429A8.039,8.039,0,0,0,383.865,48H424V64H383.865a8,8,0,0,0,0,16H424V96H383.865a8,8,0,0,0,0,16H424v16H383.865a8.079,8.079,0,0,0-7.75,9.414c.6,3.693,4.374,6.586,8.6,6.586h54.84c12.065,0,22.552,8.615,24.395,20.039a24.173,24.173,0,0,1-5.415,19.567A23.79,23.79,0,0,1,440.471,192v16H480V184h16v32a8,8,0,0,1-8,8H440v32a8,8,0,0,1-8,8H384V248h40V160H384.715c-12.065,0-22.553-8.614-24.4-20.038a24.172,24.172,0,0,1,5.415-19.567c.115-.136.232-.271.35-.4A23.967,23.967,0,0,1,361.387,96H280V80h81.371a24.047,24.047,0,0,1,4.715-23.993,24.007,24.007,0,0,1-6.032-17.637C360.886,25.826,371.789,16,384.875,16H488A8,8,0,0,1,496,24ZM440,176h.4a7.814,7.814,0,0,0,5.95-2.768,8.093,8.093,0,0,0,1.8-6.645c-.574-3.563-4.111-6.373-8.154-6.568ZM152,440a23.985,23.985,0,0,1-6.086,15.994,24.007,24.007,0,0,1,6.032,17.636c-.832,12.544-11.735,22.37-24.821,22.37H24a8,8,0,0,1-8-8V344H32V480h95.125c4.612,0,8.584-3.333,8.856-7.429a8.034,8.034,0,0,0-3.6-7.307A7.732,7.732,0,0,0,128.135,464H88V448h40.135A7.942,7.942,0,0,0,136,440a8.1,8.1,0,0,0-1.063-4.022,7.881,7.881,0,0,0-6.8-3.978H88V416h40.135a8,8,0,0,0,0-16H88V384h40.135a7.814,7.814,0,0,0,5.95-2.768,8.092,8.092,0,0,0,1.8-6.644c-.6-3.694-4.373-6.588-8.6-6.588H72.445c-12.065,0-22.552-8.614-24.395-20.038a24.174,24.174,0,0,1,5.415-19.568A23.79,23.79,0,0,1,71.529,320V304H32v24H16V296a8,8,0,0,1,8-8H72V168H88v80h44.45a3.554,3.554,0,0,0,3.55-3.55,3.072,3.072,0,0,0-.606-1.981A27.583,27.583,0,0,1,128,224c0-17.645,17.944-32,40-32s40,14.355,40,32a27.586,27.586,0,0,1-7.4,18.473,3.075,3.075,0,0,0-.6,1.977,3.554,3.554,0,0,0,3.55,3.55H224v16H203.55A19.572,19.572,0,0,1,184,244.45a18.9,18.9,0,0,1,4.653-12.618A11.732,11.732,0,0,0,192,224c0-8.673-10.991-16-24-16s-24,7.327-24,16a11.732,11.732,0,0,0,3.342,7.828A18.9,18.9,0,0,1,152,244.45,19.572,19.572,0,0,1,132.45,264H88v88h39.285c12.065,0,22.553,8.615,24.4,20.04a24.169,24.169,0,0,1-5.415,19.565q-.172.2-.35.4a23.967,23.967,0,0,1,4.7,23.992H264v8a8,8,0,0,1-8,8H150.629A24.171,24.171,0,0,1,152,440ZM72,336h-.4a7.816,7.816,0,0,0-5.95,2.768,8.092,8.092,0,0,0-1.8,6.646c.574,3.562,4.111,6.372,8.154,6.567Zm424,48.87V488a8,8,0,0,1-8,8H296a8,8,0,0,1-8-8V418.456l-48.747-19.245a8,8,0,0,1-4.508-10.368l16.62-42.272a3.818,3.818,0,0,0-2.139-4.938,3.273,3.273,0,0,0-2.207-.177,27.853,27.853,0,0,1-20.19.113c-10.256-4.046-17.205-14.134-18.583-26.985a48.587,48.587,0,0,1,3.271-22.808c4.568-11.634,12.939-20.813,22.962-25.172a28.766,28.766,0,0,1,22.15-.775,25.983,25.983,0,0,1,3.387,1.642A28.736,28.736,0,0,1,271.3,279.7c.8,1.586,3.121,2,4.621,1.349a3.763,3.763,0,0,0,2.007-2.088l19.613-49.889a8,8,0,0,1,10.383-4.512l49.77,19.65a19.834,19.834,0,0,1,11.146,25.682,19.077,19.077,0,0,1-9.04,10.161c-10.954,5.527-6.768,17.95.562,24.537,7.4,6.646,19.417,10.395,29.169,7.711,7.648-2.106,12.523-8.882,9.675-16.675a18.315,18.315,0,0,1-1.11-6.315,19.944,19.944,0,0,1,11.919-18.2,19.616,19.616,0,0,1,15.151-.268l49.768,19.648a8,8,0,0,1,4.508,10.367l-25.1,63.883c.573.426,1.131.869,1.661,1.342a23.938,23.938,0,0,1,17.624-6.022C486.174,360.892,496,371.79,496,384.87ZM352,426.521V384.71c0-12.058,8.612-22.542,20.034-24.388a24.188,24.188,0,0,1,19.57,5.41c.136.117.271.234.405.353a24.055,24.055,0,0,1,31.986,0,23.777,23.777,0,0,1,15-6.047l22.636-57.6-42.341-16.716c-2.564-1.013-6.127,1.482-5.058,4.4a28.1,28.1,0,0,1,.115,20.184c-3.3,8.383-10.794,14.728-20.567,17.419-9.091,2.5-19.446,1.768-29.159-2.065a49.345,49.345,0,0,1-14.951-9.172c-11.446-10.28-15.641-24.079-10.946-36.009a27.938,27.938,0,0,1,13.851-14.7,3.266,3.266,0,0,0,1.369-1.721,3.818,3.818,0,0,0-2.125-4.965L309.5,242.383l-16.677,42.423a19.768,19.768,0,0,1-25.66,11.176,19.183,19.183,0,0,1-10.144-9.07c-3.172-6.3-9.731-8.431-16.162-5.635-6.065,2.637-11.467,8.752-14.453,16.357a32.538,32.538,0,0,0-2.251,15.254c.731,6.813,3.927,11.976,8.55,13.8a12.015,12.015,0,0,0,8.764-.239,19.08,19.08,0,0,1,13.631.3,19.844,19.844,0,0,1,11.157,25.67l-13.7,34.841Zm-16,10.885V440.4a7.816,7.816,0,0,0,2.768,5.954,8.077,8.077,0,0,0,6.646,1.8,7.937,7.937,0,0,0,5.756-4.757ZM480,384.87c0-4.606-3.333-8.575-7.431-8.848a8,8,0,0,0-7.314,3.612A7.688,7.688,0,0,0,464,383.87V424H448V383.87a7.882,7.882,0,0,0-5.845-7.576,8,8,0,0,0-6.169.763A7.8,7.8,0,0,0,432,383.87V424H416V383.87a8,8,0,0,0-16,0V424H384V383.87a7.818,7.818,0,0,0-2.769-5.955,8.078,8.078,0,0,0-6.645-1.8c-3.693.6-6.586,4.371-6.586,8.593v54.84c0,12.064-8.613,22.553-20.034,24.4a24.183,24.183,0,0,1-19.57-5.41A23.792,23.792,0,0,1,320,440.4v-9.311l-16-6.317V480H480ZM245.47,440.41l-24,8,5.06,15.18,24-8Zm-4.126,51.152,13.312,8.876,16-24-13.312-8.876ZM464.411,229.47l-8,24,15.178,5.06,8-24ZM472,280h24V264H472Z"/></g></svg>
