<svg xmlns="http://www.w3.org/2000/svg" viewBox="0 0 195.31 250"><defs><style>.cls-1{opacity:0.95;}.cls-2,.cls-3{fill:#2f2b32;}.cls-2,.cls-6,.cls-7{opacity:0.15;}.cls-3{opacity:0.2;}.cls-4{fill:#fff;}.cls-5{fill:#f2f2f4;}.cls-6{fill:#76cc5b;}.cls-7{fill:#599944;}</style></defs><title>1</title><g id="Camada_2" data-name="Camada 2"><g id="Camada_1-2" data-name="Camada 1"><g class="cls-1"><path class="cls-2" d="M125.27,183.77A7.32,7.32,0,0,0,116.8,186a24.4,24.4,0,0,1-38.29,0,7.3,7.3,0,0,0-8.46-2.27,24.38,24.38,0,0,1-18.78-.31V250H64.75l32.91-11.75L130.57,250H144V183.46A24.36,24.36,0,0,1,125.27,183.77Z"/><path class="cls-3" d="M186,78.51a7.3,7.3,0,0,1-2.27-8.46,24.41,24.41,0,0,0-19.15-33.17,7.3,7.3,0,0,1-6.19-6.19,24.4,24.4,0,0,0-33.16-19.15,7.3,7.3,0,0,1-8.47-2.27,24.4,24.4,0,0,0-38.29,0,7.3,7.3,0,0,1-8.46,2.27A24.41,24.41,0,0,0,36.88,30.69a7.3,7.3,0,0,1-6.19,6.19A24.41,24.41,0,0,0,11.54,70.05a7.28,7.28,0,0,1-2.27,8.46,24.4,24.4,0,0,0,0,38.29,7.32,7.32,0,0,1,2.27,8.47,24.4,24.4,0,0,0,19.15,33.16,7.3,7.3,0,0,1,6.19,6.19,24.38,24.38,0,0,0,14.39,18.84v-2.31H144v2.31a24.38,24.38,0,0,0,14.39-18.84,7.3,7.3,0,0,1,6.19-6.19,24.41,24.41,0,0,0,19.15-33.17A7.3,7.3,0,0,1,186,116.8a24.4,24.4,0,0,0,0-38.29Z"/><path class="cls-2" d="M51.27,181.15v2.31a24.38,24.38,0,0,0,18.78.31A7.3,7.3,0,0,1,78.51,186a24.4,24.4,0,0,0,38.29,0,7.32,7.32,0,0,1,8.47-2.27,24.36,24.36,0,0,0,18.77-.31v-2.31Z"/><path class="cls-2" d="M125.27,183.77A7.32,7.32,0,0,0,116.8,186a24.34,24.34,0,0,1-19.14,9.27v42.94L130.57,250H144V183.46A24.36,24.36,0,0,1,125.27,183.77Z"/><path class="cls-2" d="M186,78.51a7.3,7.3,0,0,1-2.27-8.46,24.41,24.41,0,0,0-19.15-33.17,7.3,7.3,0,0,1-6.19-6.19,24.4,24.4,0,0,0-33.16-19.15,7.3,7.3,0,0,1-8.47-2.27A24.37,24.37,0,0,0,97.66,0V181.15H144v2.31a24.38,24.38,0,0,0,14.39-18.84,7.3,7.3,0,0,1,6.19-6.19,24.4,24.4,0,0,0,19.15-33.16A7.32,7.32,0,0,1,186,116.8a24.4,24.4,0,0,0,0-38.29Z"/><path class="cls-4" d="M97.66,168.46a70.8,70.8,0,1,1,70.8-70.8A70.88,70.88,0,0,1,97.66,168.46Zm0-127a56.16,56.16,0,1,0,56.15,56.16A56.22,56.22,0,0,0,97.66,41.5Z"/><path class="cls-5" d="M97.66,26.86V41.5a56.16,56.16,0,0,1,0,112.31v14.65a70.8,70.8,0,0,0,0-141.6Z"/><polygon class="cls-6" points="91.1 123.14 69.97 102.22 80.27 91.81 91.02 102.45 115 78.33 125.39 88.66 91.1 123.14"/><polygon class="cls-7" points="97.68 116.52 125.39 88.66 115 78.33 97.68 95.75 97.68 116.52"/><path class="cls-3" d="M97.66,195.31A24.34,24.34,0,0,0,116.8,186a7.32,7.32,0,0,1,8.47-2.27,24.36,24.36,0,0,0,18.77-.31v-2.31H97.66"/></g></g></g></svg>