<svg xmlns="http://www.w3.org/2000/svg" viewBox="0 0 307.83 250"><defs><style>.cls-1{fill:#d9dde2;}.cls-1,.cls-13,.cls-2{opacity:0.15;}.cls-2{fill:#69788d;}.cls-3{fill:#435670;}.cls-3,.cls-7{opacity:0.05;}.cls-4{fill:#ff8c78;}.cls-10,.cls-12,.cls-4,.cls-5,.cls-6,.cls-8{opacity:0.2;}.cls-11,.cls-5{fill:#ffdb66;}.cls-6{fill:#7ec97d;}.cls-12,.cls-13,.cls-7{fill:#2f2b32;}.cls-8{fill:#f7c14d;}.cls-9{fill:#f09b24;opacity:0.1;}</style></defs><title>2</title><g id="Camada_2" data-name="Camada 2"><g id="Camada_1-2" data-name="Camada 1"><rect class="cls-1" x="4.52" y="4.52" width="19.28" height="240.96"/><rect class="cls-2" x="4.52" y="4.52" width="298.79" height="48.19"/><rect class="cls-3" x="4.52" y="4.52" width="19.28" height="48.19"/><circle class="cls-4" cx="279.22" cy="28.61" r="9.64"/><circle class="cls-5" cx="240.66" cy="28.61" r="9.64"/><circle class="cls-6" cx="202.11" cy="28.61" r="9.64"/><path class="cls-7" d="M168.37,173.19c-18.63,0-33.73-19.42-33.73-43.37,0-16.77,7.4-31.3,18.23-38.52-18.14.71-32.69,19.83-32.69,43.34,0,24,15.1,43.37,33.74,43.37a27.83,27.83,0,0,0,15.5-4.85Z"/><circle class="cls-8" cx="153.92" cy="187.65" r="14.46"/><path class="cls-9" d="M163.55,197.29a14.46,14.46,0,0,1-10.81-24,14.46,14.46,0,1,0,12,24C164.34,197.27,164,197.29,163.55,197.29Z"/><g class="cls-10"><path class="cls-11" d="M277.87,140.07l-24.1-33.73a7.23,7.23,0,0,0-11.76,8.4l21.1,29.54L242,173.81a7.23,7.23,0,1,0,11.76,8.4l24.1-33.73A7.22,7.22,0,0,0,277.87,140.07Z"/><path class="cls-11" d="M30,140.07l24.1-33.73a7.23,7.23,0,1,1,11.76,8.4L44.73,144.28l21.09,29.53a7.23,7.23,0,1,1-11.76,8.4L30,148.48A7.22,7.22,0,0,1,30,140.07Z"/></g><path class="cls-12" d="M303.31,0H4.52A4.52,4.52,0,0,0,0,4.52v241A4.52,4.52,0,0,0,4.52,250H303.31a4.52,4.52,0,0,0,4.52-4.52V4.52A4.52,4.52,0,0,0,303.31,0ZM9,241V57.23h229a4.52,4.52,0,0,0,0-9H9V9H298.79V48.19H259.94a4.52,4.52,0,0,0,0,9h38.85V241Z"/><path class="cls-13" d="M279.22,42.77a14.16,14.16,0,1,0-14.16-14.16A14.17,14.17,0,0,0,279.22,42.77Zm0-19.28a5.13,5.13,0,1,1-5.12,5.12A5.13,5.13,0,0,1,279.22,23.49Z"/><path class="cls-13" d="M254.82,28.61a14.16,14.16,0,1,0-14.16,14.16A14.17,14.17,0,0,0,254.82,28.61Zm-14.16,5.13a5.13,5.13,0,1,1,5.12-5.13A5.13,5.13,0,0,1,240.66,33.74Z"/><path class="cls-13" d="M202.11,14.46a14.16,14.16,0,1,0,14.15,14.15A14.17,14.17,0,0,0,202.11,14.46Zm0,19.28a5.13,5.13,0,1,1,5.12-5.13A5.13,5.13,0,0,1,202.11,33.74Z"/><path class="cls-13" d="M28.61,24.1H23.79a4.52,4.52,0,0,0,0,9h4.82a4.52,4.52,0,1,0,0-9Z"/><path class="cls-13" d="M52.71,24.1H43.07a4.52,4.52,0,1,0,0,9h9.64a4.52,4.52,0,1,0,0-9Z"/><path class="cls-13" d="M72,24.1H67.17a4.52,4.52,0,1,0,0,9H72a4.52,4.52,0,1,0,0-9Z"/><path class="cls-13" d="M219.36,135.42l-16.93,8.46L192.12,137c0-.79,0-1.58,0-2.37a57.77,57.77,0,0,0-3.83-20.88l15.09,3a4.55,4.55,0,0,0,4.79-2.16l12.25-21.08A4.52,4.52,0,1,0,212.66,89L202,107.29l-19.11-3.83c-7-10.22-17.42-16.71-29-16.71s-22,6.49-29,16.71l-19.11,3.83L95.17,89a4.51,4.51,0,0,0-7.81,4.53l12.25,21.09a4.55,4.55,0,0,0,4.79,2.16l15.1-3a57.56,57.56,0,0,0-3.84,20.88c0,.79,0,1.58.06,2.36l-10.32,6.88-16.93-8.46a4.52,4.52,0,1,0-4,8.08l19.27,9.64a4.56,4.56,0,0,0,4.53-.28L117,147a53,53,0,0,0,8.11,19.08l-12.23,8.15a4.52,4.52,0,0,0-2,3.76v19.28a4.52,4.52,0,1,0,9,0V180.43L131,173a37.35,37.35,0,0,0,6.59,5,18.81,18.81,0,0,0-2.66,9.67,19,19,0,1,0,37.95,0,18.81,18.81,0,0,0-2.66-9.67,37.35,37.35,0,0,0,6.59-5L188,180.43v16.86a4.52,4.52,0,0,0,9,0V178a4.54,4.54,0,0,0-2-3.76l-12.23-8.15A53.36,53.36,0,0,0,190.86,147l8.74,5.84a4.56,4.56,0,0,0,4.53.28l19.28-9.64a4.52,4.52,0,1,0-4-8.08Zm-65.44,62.17a9.94,9.94,0,1,1,9.93-9.94A9.95,9.95,0,0,1,153.92,197.59Zm9.63-26.28a18.9,18.9,0,0,0-19.27,0c-11.72-5.49-19.58-20.2-19.58-36.67a47.24,47.24,0,0,1,6.42-24.27,4.33,4.33,0,0,0,.57-.91c5.36-8.36,13.33-13.68,22.23-13.68s16.86,5.32,22.22,13.68a4.33,4.33,0,0,0,.57.91,47.24,47.24,0,0,1,6.42,24.27C183.13,151.11,175.27,165.82,163.55,171.31Z"/><path class="cls-13" d="M153.92,110.84a4.52,4.52,0,0,0-4.52,4.52v24.1a4.52,4.52,0,1,0,9,0v-24.1A4.52,4.52,0,0,0,153.92,110.84Z"/><path class="cls-13" d="M157.11,150.72a4.52,4.52,0,1,0,1.32,3.2,4.85,4.85,0,0,0-.35-1.73A5.64,5.64,0,0,0,157.11,150.72Z"/><path class="cls-13" d="M257.45,103.71a11.75,11.75,0,0,0-19.12,13.66l19.22,26.91-19.22,26.9a11.75,11.75,0,0,0,19.12,13.66l24.1-33.74a11.76,11.76,0,0,0,0-13.65Zm16.74,42.14L250.1,179.59a2.71,2.71,0,0,1-4.41-3.15l21.09-29.54a4.52,4.52,0,0,0,0-5.25l-21.09-29.53A2.71,2.71,0,0,1,250.1,109l24.09,33.73A2.69,2.69,0,0,1,274.19,145.85Z"/><path class="cls-13" d="M71.53,108.61A11.73,11.73,0,0,0,66.77,101a11.87,11.87,0,0,0-16.39,2.73l-24.1,33.74a11.76,11.76,0,0,0,0,13.65l24.1,33.74A11.75,11.75,0,0,0,69.5,171.18l-19.22-26.9L69.5,117.37A11.71,11.71,0,0,0,71.53,108.61Zm-9.38,3.51-21.1,29.53a4.52,4.52,0,0,0,0,5.25l21.1,29.54a2.71,2.71,0,0,1-4.42,3.15L33.64,145.85a2.69,2.69,0,0,1,0-3.15L57.73,109a2.71,2.71,0,0,1,4.42,3.15Z"/></g></g></svg>