<svg xmlns="http://www.w3.org/2000/svg" viewBox="0 0 275.63 250"><defs><style>.cls-1,.cls-6{fill:#ffc502;}.cls-1,.cls-2,.cls-3,.cls-7{opacity:0.2;}.cls-2{fill:#89c947;}.cls-3{fill:#ef5050;}.cls-10,.cls-11,.cls-4{opacity:0.15;}.cls-5{fill:#fcdb67;}.cls-6,.cls-8,.cls-9{opacity:0.05;}.cls-7{fill:#ffd5b3;}.cls-8{fill:#775436;}.cls-9{fill:#fb8276;}.cls-10{fill:#2f2b32;}</style></defs><title>3</title><g id="Camada_2" data-name="Camada 2"><g id="Camada_1-2" data-name="Camada 1"><path class="cls-1" d="M168.34,193.91a30.53,30.53,0,1,1-30.53-30.84A30.69,30.69,0,0,1,168.34,193.91Z"/><path class="cls-2" d="M91.6,193.91a30.53,30.53,0,1,1-30.53-30.84A30.69,30.69,0,0,1,91.6,193.91Z"/><path class="cls-3" d="M245.09,193.91a30.53,30.53,0,1,1-30.54-30.84A30.7,30.7,0,0,1,245.09,193.91Z"/><g class="cls-4"><path class="cls-5" d="M61.76,87.46a1.62,1.62,0,0,1-1.61,1.61h-28a1.62,1.62,0,0,1-1.61-1.61V59.35a1.62,1.62,0,0,1,1.61-1.61h28a1.62,1.62,0,0,1,1.61,1.61Z"/><path class="cls-5" d="M61.76,138.74a1.62,1.62,0,0,1-1.61,1.61h-28a1.62,1.62,0,0,1-1.61-1.61V110.63A1.62,1.62,0,0,1,32.15,109h28a1.62,1.62,0,0,1,1.61,1.61Z"/><path class="cls-5" d="M180.25,87.46a1.61,1.61,0,0,1-1.61,1.61h-28A1.62,1.62,0,0,1,149,87.46V59.35a1.62,1.62,0,0,1,1.62-1.61h28a1.62,1.62,0,0,1,1.61,1.61Z"/><path class="cls-5" d="M180.25,138.74a1.61,1.61,0,0,1-1.61,1.61h-28a1.62,1.62,0,0,1-1.62-1.61V110.63a1.62,1.62,0,0,1,1.62-1.61h28a1.61,1.61,0,0,1,1.61,1.61Z"/></g><path class="cls-6" d="M217,4a4.58,4.58,0,0,1,4.57,4.55v22.7A4.58,4.58,0,0,1,217,35.85H85.5a21.28,21.28,0,0,1-8.57-2.19L55.74,22.12c-2.2-1.2-2.2-3.16,0-4.36L76.93,6.22A21.26,21.26,0,0,1,85.5,4Z"/><path class="cls-7" d="M87.34,4H85.5a21.26,21.26,0,0,0-8.57,2.18L55.74,17.76c-2.2,1.2-2.2,3.16,0,4.36L76.93,33.66a21.28,21.28,0,0,0,8.57,2.19h1.84Z"/><path class="cls-8" d="M70,10,55.74,17.76c-2.2,1.2-2.2,3.16,0,4.36L70,29.88Z"/><path class="cls-9" d="M221.54,31.29V8.59A4.58,4.58,0,0,0,217,4H195.06V35.85H217A4.58,4.58,0,0,0,221.54,31.29Z"/><path class="cls-10" d="M268.9,15.67H254.09a4,4,0,1,0,0,8.08h13.46V241.93H59.22a4,4,0,1,0,0,8.07H268.9a6.74,6.74,0,0,0,6.73-6.73V22.4A6.74,6.74,0,0,0,268.9,15.67Z"/><path class="cls-11" d="M39.84,241.93H8.07V23.75H51.45a8,8,0,0,0,2.36,1.92L75,37.21a25.23,25.23,0,0,0,10.5,2.67H217a8.6,8.6,0,0,0,8.6-8.59V23.75h9.68a4,4,0,0,0,0-8.08h-9.68V8.59A8.6,8.6,0,0,0,217,0H85.5A25.23,25.23,0,0,0,75,2.67L53.81,14.21a8.64,8.64,0,0,0-2,1.46H6.73A6.74,6.74,0,0,0,0,22.4V243.27A6.74,6.74,0,0,0,6.73,250H39.84a4,4,0,0,0,0-8.07ZM199.1,8.07H217a.54.54,0,0,1,.53.52v22.7a.54.54,0,0,1-.53.52H199.1Zm-107.72,0H191V15.9H91.38Zm0,15.91H191v7.83H91.38ZM74,12.4l4.84-2.63A17,17,0,0,1,83.3,8.32V31.56a17,17,0,0,1-4.44-1.44L74,27.48ZM66,16.8v6.28l-5.77-3.14Z"/><path class="cls-10" d="M137.81,228.8a34.43,34.43,0,0,0,33-24.56,4,4,0,0,0-7.72-2.37,26.39,26.39,0,0,1-25.3,18.85,26.81,26.81,0,1,1,25-35.72,4,4,0,0,0,7.63-2.65,34.63,34.63,0,1,0-32.62,46.45Z"/><path class="cls-10" d="M128.85,189.34v-3.18a4,4,0,1,0-8.08,0v3.18a4,4,0,0,0,8.08,0Z"/><path class="cls-10" d="M154.84,189.34v-3.18a4,4,0,1,0-8.07,0v3.18a4,4,0,0,0,8.07,0Z"/><path class="cls-10" d="M128.86,208h17.9a4,4,0,0,0,0-8.08h-17.9a4,4,0,0,0,0,8.08Z"/><path class="cls-10" d="M61.07,228.8A34.89,34.89,0,1,0,26.5,193.91,34.77,34.77,0,0,0,61.07,228.8Zm0-61.7a26.81,26.81,0,1,1-26.49,26.81A26.68,26.68,0,0,1,61.07,167.1Z"/><path class="cls-10" d="M48.07,193.37a4,4,0,0,0,4-4v-3.18a4,4,0,1,0-8.07,0v3.18A4,4,0,0,0,48.07,193.37Z"/><path class="cls-10" d="M74.07,193.37a4,4,0,0,0,4-4v-3.18a4,4,0,0,0-8.08,0v3.18A4,4,0,0,0,74.07,193.37Z"/><path class="cls-10" d="M47.31,201.29c0,7.05,6.18,12.79,13.76,12.79s13.76-5.74,13.76-12.79a4,4,0,1,0-8.07,0c0,2.6-2.55,4.71-5.69,4.71s-5.68-2.11-5.68-4.71a4,4,0,1,0-8.08,0Z"/><path class="cls-10" d="M214.55,228.8A34.89,34.89,0,1,0,180,193.91,34.76,34.76,0,0,0,214.55,228.8Zm0-61.7a26.81,26.81,0,1,1-26.49,26.81A26.69,26.69,0,0,1,214.55,167.1Z"/><path class="cls-10" d="M201.56,193.37a4,4,0,0,0,4-4v-3.18a4,4,0,1,0-8.07,0v3.18A4,4,0,0,0,201.56,193.37Z"/><path class="cls-10" d="M227.55,193.37a4,4,0,0,0,4-4v-3.18a4,4,0,1,0-8.07,0v3.18A4,4,0,0,0,227.55,193.37Z"/><path class="cls-10" d="M200.8,208.31a4,4,0,1,0,8.07,0c0-2.59,2.55-4.71,5.68-4.71s5.69,2.12,5.69,4.71a4,4,0,0,0,8.08,0c0-7.05-6.18-12.78-13.77-12.78S200.8,201.26,200.8,208.31Z"/><path class="cls-10" d="M32.15,93.11h28a5.66,5.66,0,0,0,5.65-5.65V64.15l1.59-1.6a4,4,0,0,0,0-5.71,4,4,0,0,0-3-1.17,5.62,5.62,0,0,0-4.27-2h-28a5.67,5.67,0,0,0-5.65,5.66v28.1A5.66,5.66,0,0,0,32.15,93.11Zm2.43-31.33h22.2l-9.91,10-3.26-3.29a4,4,0,0,0-5.73,5.69l5,5a5.61,5.61,0,0,0,4,1.67h0a5.6,5.6,0,0,0,4-1.67l6.84-6.89V85H34.58Z"/><path class="cls-10" d="M78.49,70.83h48.1a4,4,0,1,0,0-8.07H78.49a4,4,0,1,0,0,8.07Z"/><path class="cls-10" d="M78.49,84.06h27.39a4,4,0,1,0,0-8.08H78.49a4,4,0,1,0,0,8.08Z"/><path class="cls-10" d="M26.5,138.74a5.66,5.66,0,0,0,5.65,5.65h28a5.66,5.66,0,0,0,5.65-5.65V110.63A5.66,5.66,0,0,0,60.15,105h-28a5.66,5.66,0,0,0-5.65,5.65Zm8.08-25.68H57.72v23.25H34.58Z"/><path class="cls-10" d="M78.49,122.11h48.1a4,4,0,1,0,0-8.07H78.49a4,4,0,1,0,0,8.07Z"/><path class="cls-10" d="M109.92,131.3a4,4,0,0,0-4-4H78.49a4,4,0,1,0,0,8.07h27.39A4,4,0,0,0,109.92,131.3Z"/><path class="cls-10" d="M150.65,93.11h28a5.65,5.65,0,0,0,5.65-5.65V59.35a5.66,5.66,0,0,0-5.65-5.65h-28A5.66,5.66,0,0,0,145,59.35V87.46A5.65,5.65,0,0,0,150.65,93.11Zm2.42-31.33h23.15V85H153.07Z"/><path class="cls-10" d="M192.94,66.8a4,4,0,0,0,4,4h48.11a4,4,0,0,0,0-8.07H197A4,4,0,0,0,192.94,66.8Z"/><path class="cls-10" d="M197,84.06h27.39a4,4,0,0,0,0-8.08H197a4,4,0,1,0,0,8.08Z"/><path class="cls-10" d="M184.29,138.74V110.63a5.66,5.66,0,0,0-5.65-5.65h-28a5.66,5.66,0,0,0-5.65,5.65v28.11a5.66,5.66,0,0,0,5.65,5.65h28A5.66,5.66,0,0,0,184.29,138.74Zm-8.07-2.42H153.07V113.06h23.15Z"/><path class="cls-10" d="M245.09,114H197a4,4,0,1,0,0,8.07h48.11a4,4,0,0,0,0-8.07Z"/><path class="cls-10" d="M224.37,135.33a4,4,0,1,0,0-8.07H197a4,4,0,1,0,0,8.07Z"/></g></g></svg>