<svg xmlns="http://www.w3.org/2000/svg" viewBox="0 0 189.55 250"><defs><style>.cls-1{opacity:0.1;}.cls-2,.cls-3{fill:#2f2b32;}.cls-3{opacity:0.15;}.cls-4{fill:#fff;}</style></defs><title>4</title><g id="Camada_2" data-name="Camada 2"><g id="Camada_1-2" data-name="Camada 1"><g class="cls-1"><polygon class="cls-2" points="146.13 163.79 107.38 180.09 136.96 246.06 150.97 225.96 175.31 228.87 146.13 163.79"/><polygon class="cls-2" points="14.41 228.87 38.74 225.96 52.76 246.06 82.33 180.09 43.59 163.79 14.41 228.87"/></g><path class="cls-3" d="M184.22,99.71l-5.19,8.5a9.53,9.53,0,0,0-1.27,6.41l1.55,9.82a9.48,9.48,0,0,1-3.79,9.14l-8,5.84a9.5,9.5,0,0,0-3.64,5.44l-2.34,9.67a9.47,9.47,0,0,1-7,7l-9.66,2.34a9.47,9.47,0,0,0-5.44,3.64l-5.84,8a9.5,9.5,0,0,1-9.14,3.79l-9.82-1.54a9.48,9.48,0,0,0-6.41,1.27l-8.5,5.18a9.47,9.47,0,0,1-9.87,0L81.34,179a9.48,9.48,0,0,0-6.41-1.27l-9.82,1.54A9.5,9.5,0,0,1,56,175.52l-5.84-8a9.47,9.47,0,0,0-5.44-3.64L35,161.51a9.49,9.49,0,0,1-7-7l-2.34-9.67a9.47,9.47,0,0,0-3.64-5.44l-8-5.84a9.5,9.5,0,0,1-3.79-9.14l1.55-9.82a9.48,9.48,0,0,0-1.27-6.41l-5.19-8.5a9.51,9.51,0,0,1,0-9.87l5.19-8.5a9.48,9.48,0,0,0,1.27-6.41l-1.55-9.82A9.5,9.5,0,0,1,14,56l8-5.84a9.5,9.5,0,0,0,3.63-5.44L28,35a9.5,9.5,0,0,1,7-7L44.7,25.7a9.48,9.48,0,0,0,5.43-3.64L56,14a9.48,9.48,0,0,1,9.14-3.79l9.81,1.55a9.48,9.48,0,0,0,6.41-1.27l8.5-5.19a9.51,9.51,0,0,1,9.87,0l8.5,5.19a9.48,9.48,0,0,0,6.41,1.27l9.82-1.55A9.48,9.48,0,0,1,133.58,14l5.84,8a9.44,9.44,0,0,0,5.44,3.63L154.53,28a9.49,9.49,0,0,1,7,7l2.34,9.67a9.48,9.48,0,0,0,3.64,5.43l8,5.85a9.48,9.48,0,0,1,3.79,9.14l-1.55,9.81A9.54,9.54,0,0,0,179,81.34l5.18,8.5A9.47,9.47,0,0,1,184.22,99.71Z"/><circle class="cls-3" cx="94.77" cy="94.78" r="67.24"/><path class="cls-4" d="M94.78,121,72,133.73a3.18,3.18,0,0,1-4.67-3.39l5.08-25.58L53.29,87.05a3.18,3.18,0,0,1,1.78-5.49L81,78.49,91.89,54.81a3.18,3.18,0,0,1,5.77,0l10.92,23.68,25.9,3.07a3.18,3.18,0,0,1,1.79,5.49l-19.15,17.71,5.08,25.58a3.18,3.18,0,0,1-4.67,3.39Z"/><path class="cls-3" d="M123.14,38.18a3.94,3.94,0,0,0,3.55-7,71.19,71.19,0,0,0-88.33,107.2,3.94,3.94,0,1,0,6.22-4.84,63.32,63.32,0,0,1,78.56-95.33Z"/><path class="cls-3" d="M152.86,60.88a3.92,3.92,0,0,0-1.74,5.29,63.32,63.32,0,0,1-95.34,78.54,3.94,3.94,0,0,0-4.84,6.22A71.19,71.19,0,0,0,158.15,62.62,3.94,3.94,0,0,0,152.86,60.88Z"/><path class="cls-3" d="M136.46,47.23c1,.87,2,1.78,2.89,2.71s1.85,1.91,2.72,2.89a3.94,3.94,0,1,0,5.9-5.22c-1-1.1-2-2.19-3.05-3.24s-2.13-2.07-3.24-3a3.94,3.94,0,0,0-5.22,5.91Z"/><path class="cls-3" d="M187.58,87.79l-5.18-8.5a5.52,5.52,0,0,1-.74-3.74l1.54-9.82a13.37,13.37,0,0,0-5.36-12.94l-8-5.84a5.51,5.51,0,0,1-2.13-3.18l-2.34-9.67a13.35,13.35,0,0,0-9.89-9.88l-9.66-2.34a5.55,5.55,0,0,1-3.18-2.13l-5.84-8a13.38,13.38,0,0,0-12.94-5.37L114,7.9a5.59,5.59,0,0,1-3.75-.74L101.76,2a13.35,13.35,0,0,0-14,0l-8.5,5.18a5.52,5.52,0,0,1-3.74.75L65.73,6.35a13.37,13.37,0,0,0-12.94,5.36l-5.84,8a5.54,5.54,0,0,1-3.18,2.12L34.1,24.21a13.35,13.35,0,0,0-9.88,9.89l-2.34,9.67a5.56,5.56,0,0,1-2.13,3.17l-8,5.85A13.37,13.37,0,0,0,6.35,65.72L7.9,75.54a5.54,5.54,0,0,1-.75,3.75L2,87.79a13.35,13.35,0,0,0,0,14l5.18,8.5A5.54,5.54,0,0,1,7.9,114l-1.55,9.81a13.36,13.36,0,0,0,5.36,12.94l8,5.85a5.55,5.55,0,0,1,2.12,3.17l2.34,9.67a13.38,13.38,0,0,0,9.89,9.89l4,1L10.81,227.26a3.94,3.94,0,0,0,4.07,5.52l22-2.63,12.66,18.16A4,4,0,0,0,52.75,250l.37,0a3.92,3.92,0,0,0,3.23-2.31l27.9-62.24,3.54,2.15a13.37,13.37,0,0,0,14,0l3.67-2.23,27.93,62.32a3.93,3.93,0,0,0,3.23,2.31l.37,0a3.92,3.92,0,0,0,3.23-1.69l12.66-18.16,22,2.63a3.93,3.93,0,0,0,4.06-5.52l-27.34-61,3.89-.94a13.38,13.38,0,0,0,9.89-9.89l2.34-9.66a5.54,5.54,0,0,1,2.12-3.18l8-5.84a13.37,13.37,0,0,0,5.36-12.94L181.66,114a5.53,5.53,0,0,1,.74-3.75l5.18-8.5h0A13.35,13.35,0,0,0,187.58,87.79ZM52,238.1,42,223.71a4,4,0,0,0-3.7-1.66l-17.42,2.08L45.74,168.6a5.46,5.46,0,0,1,1.2,1.2l5.85,8a13.09,13.09,0,0,0,1.86,2.07L41.54,209.14a3.93,3.93,0,0,0,2,5.2,3.83,3.83,0,0,0,1.61.35,3.93,3.93,0,0,0,3.59-2.33l13.06-29.12a13.64,13.64,0,0,0,3.93,0l9.82-1.54a5.2,5.2,0,0,1,1.76,0Zm99.43-16a4,4,0,0,0-3.7,1.66l-10,14.39L112.4,181.65a5.12,5.12,0,0,1,1.61,0l9.81,1.54a13.42,13.42,0,0,0,4.1,0L141,212.36a4,4,0,0,0,3.6,2.33,3.87,3.87,0,0,0,1.61-.35,3.94,3.94,0,0,0,2-5.2L135,179.8a13.61,13.61,0,0,0,1.74-2l5.84-8a5.66,5.66,0,0,1,1.33-1.3l24.93,55.62ZM180.85,97.66l-5.18,8.5a13.48,13.48,0,0,0-1.8,9.07l1.55,9.82a5.53,5.53,0,0,1-2.22,5.34l-8,5.85a13.44,13.44,0,0,0-5.15,7.69l-2.34,9.67a5.52,5.52,0,0,1-4.08,4.08L143.93,160a13.47,13.47,0,0,0-7.7,5.15l-5.84,8a5.51,5.51,0,0,1-5.34,2.22l-9.82-1.55a13.47,13.47,0,0,0-9.07,1.8l-8.5,5.18a5.5,5.5,0,0,1-5.77,0l-8.5-5.18a13.42,13.42,0,0,0-7-2,13.25,13.25,0,0,0-2.08.16l-9.82,1.55a5.53,5.53,0,0,1-5.34-2.22l-5.85-8A13.44,13.44,0,0,0,45.62,160L36,157.68a5.5,5.5,0,0,1-4.08-4.08l-2.34-9.67a13.5,13.5,0,0,0-5.15-7.7l-8-5.84a5.53,5.53,0,0,1-2.22-5.34l1.55-9.82a13.47,13.47,0,0,0-1.8-9.07L8.7,97.66a5.5,5.5,0,0,1,0-5.77l5.18-8.5a13.41,13.41,0,0,0,1.8-9.07L14.14,64.5a5.5,5.5,0,0,1,2.21-5.34l8-5.85a13.35,13.35,0,0,0,5.15-7.69L31.87,36A5.52,5.52,0,0,1,36,31.87l9.66-2.34a13.47,13.47,0,0,0,7.7-5.15l5.84-8a5.53,5.53,0,0,1,5.34-2.22l9.82,1.55a13.47,13.47,0,0,0,9.07-1.8l8.5-5.18a5.5,5.5,0,0,1,5.77,0l8.5,5.18a13.42,13.42,0,0,0,9.07,1.8l9.82-1.54a5.5,5.5,0,0,1,5.34,2.21l5.85,8a13.39,13.39,0,0,0,7.69,5.15l9.67,2.34A5.52,5.52,0,0,1,157.68,36L160,45.62a13.47,13.47,0,0,0,5.15,7.7l8,5.84a5.53,5.53,0,0,1,2.21,5.34l-1.55,9.82a13.47,13.47,0,0,0,1.8,9.07l5.19,8.5A5.52,5.52,0,0,1,180.85,97.66Z"/><path class="cls-3" d="M50.61,89.94l17.53,16.21-4.66,23.42a7.11,7.11,0,0,0,10.46,7.6l20.84-11.66,20.83,11.66a7.12,7.12,0,0,0,10.46-7.6l-4.66-23.42,17.53-16.21a7.11,7.11,0,0,0-4-12.29l-23.71-2.81-10-21.68a7.12,7.12,0,0,0-12.93,0l-10,21.68-23.7,2.81a7.11,7.11,0,0,0-4,12.29ZM81.43,82.4a3.93,3.93,0,0,0,3.11-2.26L94.78,58,105,80.14a3.93,3.93,0,0,0,3.11,2.26l24.26,2.88-17.93,16.59a3.92,3.92,0,0,0-1.19,3.66l4.76,24L96.7,117.55a4,4,0,0,0-3.85,0L71.53,129.49l4.76-24a3.92,3.92,0,0,0-1.19-3.66L57.17,85.28Z"/></g></g></svg>