<svg xmlns="http://www.w3.org/2000/svg" viewBox="0 0 249.99 250"><defs><style>.cls-1{fill:#2f2b32;opacity:0.15;}</style></defs><title>5</title><g id="Camada_2" data-name="Camada 2"><g id="Camada_1-2" data-name="Camada 1"><path class="cls-1" d="M213.15,4.2a7.27,7.27,0,0,0-1.79-2.35A7.27,7.27,0,0,1,213.15,4.2Z"/><path class="cls-1" d="M213.82,7.81l-1.65,25.28,19.89,15.69L212.17,33.09l1.65-25.28a7.38,7.38,0,0,0-.07-1.64A7.38,7.38,0,0,1,213.82,7.81Z"/><path class="cls-1" d="M144.11,70.58l25.31,1L210.17,1a7.24,7.24,0,0,0-7.73.24L181.38,15.31,157.85,5.93a7.33,7.33,0,0,0-9.76,8.79L155,39.1,138.77,58.58A7.33,7.33,0,0,0,144.11,70.58Z"/><path class="cls-1" d="M233.55,50.34a7.42,7.42,0,0,0-1.06-1.2A7.42,7.42,0,0,1,233.55,50.34Z"/><path class="cls-1" d="M233.55,50.34a8,8,0,0,1,.53.89A8,8,0,0,0,233.55,50.34Z"/><path class="cls-1" d="M234.61,52.63a8.26,8.26,0,0,1,.18,1A8.26,8.26,0,0,0,234.61,52.63Z"/><path class="cls-1" d="M213.15,4.2a6.84,6.84,0,0,1,.6,2A6.84,6.84,0,0,0,213.15,4.2Z"/><path class="cls-1" d="M234.79,53.6a8.22,8.22,0,0,1,.06,1A8.22,8.22,0,0,0,234.79,53.6Z"/><path class="cls-1" d="M242.67,118.17h-54.2a7.32,7.32,0,0,0-7.32,7.32v22H132.32a7.33,7.33,0,0,0-7.32,7.33v22H71.29A7.33,7.33,0,0,0,64,184.08v22H7.32A7.32,7.32,0,0,0,0,213.38v29.3A7.32,7.32,0,0,0,7.32,250H242.67a7.32,7.32,0,0,0,7.32-7.32V125.49A7.32,7.32,0,0,0,242.67,118.17Z"/><path class="cls-1" d="M37.11,162.11a7.32,7.32,0,0,0,7.32-7.32,7.34,7.34,0,0,1,7.33-7.33H81.05a22,22,0,0,0,22-22,7.33,7.33,0,0,1,7.33-7.32h29.29a22,22,0,0,0,22-22,7.33,7.33,0,1,0-14.65,0,7.34,7.34,0,0,1-7.33,7.32H110.35a22,22,0,0,0-22,22,7.34,7.34,0,0,1-7.33,7.33H51.76a22,22,0,0,0-22,22A7.33,7.33,0,0,0,37.11,162.11Z"/><path class="cls-1" d="M234.85,54.59c0,.32,0,.65-.08,1C234.81,55.24,234.84,54.91,234.85,54.59Z"/><path class="cls-1" d="M234.68,56c-.07.32-.16.64-.26,1C234.52,56.68,234.61,56.36,234.68,56Z"/><path class="cls-1" d="M192.7,95.49a7.1,7.1,0,0,0,2-1.56A7.1,7.1,0,0,1,192.7,95.49Z"/><path class="cls-1" d="M188.44,96.38a6.39,6.39,0,0,0,1,0A6.39,6.39,0,0,1,188.44,96.38Z"/><path class="cls-1" d="M191.81,95.91a7.12,7.12,0,0,1-1.42.39A7.12,7.12,0,0,0,191.81,95.91Z"/><path class="cls-1" d="M192.7,95.49a8,8,0,0,1-.89.42A8,8,0,0,0,192.7,95.49Z"/><path class="cls-1" d="M234,57.89a8.31,8.31,0,0,1-.51.85A8.31,8.31,0,0,0,234,57.89Z"/><path class="cls-1" d="M182.94,93a7.19,7.19,0,0,0,5.5,3.38,6.39,6.39,0,0,0,1,0,8,8,0,0,0,1-.1,7.12,7.12,0,0,0,1.42-.39,8,8,0,0,0,.89-.42,7.1,7.1,0,0,0,2-1.56,7.28,7.28,0,0,0,1.35-2.3l8.78-23.76,24.55-6.25a7.19,7.19,0,0,0,4.19-2.88,8.31,8.31,0,0,0,.51-.85,7.19,7.19,0,0,0,.39-.9c.1-.31.19-.63.26-1,0-.15.06-.32.09-.48,0-.32.07-.65.08-1a8.05,8.05,0,0,0-.24-2,7.19,7.19,0,0,0-.53-1.4,8,8,0,0,0-.53-.89,7.42,7.42,0,0,0-1.06-1.2,4.82,4.82,0,0,0-.43-.36L212.17,33.09l1.65-25.28a7.38,7.38,0,0,0-.07-1.64,6.84,6.84,0,0,0-.6-2,7.27,7.27,0,0,0-1.79-2.35A7.59,7.59,0,0,0,210.17,1L169.42,71.58Z"/><path class="cls-1" d="M182.94,93a7.19,7.19,0,0,0,5.5,3.38,6.39,6.39,0,0,0,1,0,8,8,0,0,0,1-.1,7.12,7.12,0,0,0,1.42-.39,8,8,0,0,0,.89-.42,7.1,7.1,0,0,0,2-1.56,7.28,7.28,0,0,0,1.35-2.3l8.78-23.76,24.55-6.25a7.19,7.19,0,0,0,4.19-2.88,8.31,8.31,0,0,0,.51-.85,7.19,7.19,0,0,0,.39-.9c.1-.31.19-.63.26-1,0-.15.06-.32.09-.48,0-.32.07-.65.08-1a8.05,8.05,0,0,0-.24-2,7.19,7.19,0,0,0-.53-1.4,8,8,0,0,0-.53-.89,7.42,7.42,0,0,0-1.06-1.2,4.82,4.82,0,0,0-.43-.36L212.17,33.09l1.65-25.28a7.38,7.38,0,0,0-.07-1.64,6.84,6.84,0,0,0-.6-2,7.27,7.27,0,0,0-1.79-2.35A7.59,7.59,0,0,0,210.17,1L169.42,71.58Z"/><path class="cls-1" d="M242.25,250H181.51V125.49a7.28,7.28,0,0,1,7.23-7.32h53.51a7.28,7.28,0,0,1,7.24,7.32V242.68A7.28,7.28,0,0,1,242.25,250Z"/><path class="cls-1" d="M119.78,176.76H70.72a.21.21,0,0,1-.12,0h-.06a.1.1,0,0,1-.09,0h0l-.08,0-.06,0-.1,0h0l0,0a.2.2,0,0,1-.13,0H70l0,0-.06,0h-.07l-.07,0h0a.26.26,0,0,1-.16.06h0a.22.22,0,0,1-.13,0h0s0,0,0,0l-.09,0h0l0,0-.06,0H69a.22.22,0,0,1-.14.05l-.08,0h0a.41.41,0,0,1-.11.07h-.07a0,0,0,0,0,0,0l0,0h0s0,0,0,0v0l-.08.05h-.13a.2.2,0,0,1-.14.06h0l0,0,0,0-.06,0H67.9a.2.2,0,0,1-.11.06l0,0s0,0-.06,0l0,0h0l-.05,0h0a.08.08,0,0,1,0,0h0l-.08.05h0l0,0h0l0,0h0l0,0h0l-.06,0h0a.35.35,0,0,1-.12.07,1.13,1.13,0,0,1-.25.17.21.21,0,0,1-.18.13l-.09.08a1.54,1.54,0,0,1-.19.17,2,2,0,0,1-.36.35c-.06.07-.13.13-.19.19a1.29,1.29,0,0,1-.19.21l0,0a.24.24,0,0,1-.11.15l0,0a.21.21,0,0,1-.11.16.35.35,0,0,1-.06.14s0,0,0,0a.22.22,0,0,1,0,.08l-.06,0a.18.18,0,0,1-.07.08.26.26,0,0,1-.06.14s0,.07,0,.09l0,0s0,0-.06,0a0,0,0,0,1,0,0,.3.3,0,0,1,0,.1.18.18,0,0,1,0,.07l0,0-.05,0a.27.27,0,0,1-.06.12v0s0,0,0,.07h0v0h0v0h0l0,.05,0,0a.21.21,0,0,1-.07.15v0a.14.14,0,0,1,0,.06h0v0h0l0,0v0a.19.19,0,0,1,0,.08v0a.27.27,0,0,1,0,.12l0,0a.06.06,0,0,1,0,0h0v0l0,0h0v0h0a.45.45,0,0,1,0,.08h0v0h0l0,0a.29.29,0,0,1,0,.09l0,0a.24.24,0,0,1,0,.27s0,0,0,0,0,0,0,.06h0v0h0l0,0a.14.14,0,0,1,0,.07.25.25,0,0,1,0,.07h0a.28.28,0,0,1,0,.12v0s0,0,0,.06h0a.21.21,0,0,1,0,.12l0,0a.22.22,0,0,1,0,.14.12.12,0,0,1,0,.08h0a.28.28,0,0,1,0,.13h0s0,0,0,0a.27.27,0,0,1,0,.23v63.58A2.68,2.68,0,0,0,66.6,250h53.18c3.67,0,6.65-1.82,6.65-4.07v-65.1C126.43,178.58,123.45,176.76,119.78,176.76Z"/></g></g></svg>