<svg xmlns="http://www.w3.org/2000/svg" viewBox="0 0 160 200"><defs><style>.cls-1,.cls-3{fill:#2f2b32;}.cls-1,.cls-2,.cls-5{opacity:0.15;}.cls-4{fill:#02998a;}.cls-4,.cls-6{opacity:0.2;}.cls-5{fill:#6cbbc7;}.cls-6{fill:#ff6536;}</style></defs><title>6</title><g id="Camada_2" data-name="Camada 2"><g id="Camada_1-2" data-name="Camada 1"><g id="Flat"><path class="cls-1" d="M72,16H88V8a8,8,0,0,0-8-8h0a8,8,0,0,0-8,8Z"/><g class="cls-2"><path class="cls-3" d="M152,16H8a8,8,0,0,0-8,8V192a8,8,0,0,0,8,8H152a8,8,0,0,0,8-8V24A8,8,0,0,0,152,16Zm-8,168H16V32H144Z"/></g><polygon class="cls-4" points="40 85.66 29.17 74.83 34.83 69.17 40 74.34 53.17 61.17 58.83 66.83 40 85.66"/><rect class="cls-5" x="68" y="68" width="64" height="8"/><polygon class="cls-4" points="40 113.66 29.17 102.83 34.83 97.17 40 102.34 53.17 89.17 58.83 94.83 40 113.66"/><rect class="cls-5" x="68" y="96" width="64" height="8"/><rect class="cls-5" x="68" y="124" width="64" height="8"/><rect class="cls-5" x="68" y="152" width="64" height="8"/><rect class="cls-1" x="36" y="16" width="88" height="16"/><polyline class="cls-1" points="36 32 36 48 124 48 124 32"/><polygon class="cls-6" points="54.83 122.83 49.17 117.17 44 122.34 38.83 117.17 33.17 122.83 38.34 128 33.17 133.17 38.83 138.83 44 133.66 49.17 138.83 54.83 133.17 49.66 128 54.83 122.83"/><polygon class="cls-4" points="40 169.66 29.17 158.83 34.83 153.17 40 158.34 53.17 145.17 58.83 150.83 40 169.66"/></g></g></g></svg>