<svg xmlns="http://www.w3.org/2000/svg" viewBox="0 0 239.14 200"><defs><style>.cls-1,.cls-3{opacity:0.15;}.cls-2,.cls-3,.cls-4{fill:#2f2b32;}.cls-4{opacity:0.2;}</style></defs><title>7</title><g id="Camada_2" data-name="Camada 2"><g id="Camada_1-2" data-name="Camada 1"><g class="cls-1"><path class="cls-2" d="M217.45,1.49H21.69A13.94,13.94,0,0,0,7.75,15.43V141.67a13.94,13.94,0,0,0,13.94,13.94H217.45a13.94,13.94,0,0,0,13.94-13.94V15.43A13.94,13.94,0,0,0,217.45,1.49Zm5.36,127.94a5.36,5.36,0,0,1-5.36,5.36H21.69a5.36,5.36,0,0,1-5.36-5.36v-114a5.36,5.36,0,0,1,5.36-5.37H217.45a5.36,5.36,0,0,1,5.36,5.37Z"/></g><path class="cls-3" d="M80.61,178.21h77.91v9.38H80.61Z"/><path class="cls-4" d="M80.61,178.21h9.46v9.38H80.61Z"/><path class="cls-4" d="M91.69,155.61h55.75v22.6H91.69Z"/><path class="cls-3" d="M91.69,155.61h9.46v22.6H91.69Z"/><circle class="cls-4" cx="119.57" cy="145.2" r="4.59"/><path class="cls-3" d="M224.3,129.43v-114a6.85,6.85,0,0,0-6.85-6.85H21.69a6.85,6.85,0,0,0-6.85,6.85v114a6.86,6.86,0,0,0,6.85,6.85H217.45a6.86,6.86,0,0,0,6.85-6.86Zm-206.48,0v-114a3.87,3.87,0,0,1,3.87-3.87H217.45a3.88,3.88,0,0,1,3.87,3.87v114a3.89,3.89,0,0,1-3.87,3.87H21.69a3.88,3.88,0,0,1-3.87-3.88Z"/><path class="cls-3" d="M119.57,139.12a6.08,6.08,0,1,0,6.08,6.08A6.08,6.08,0,0,0,119.57,139.12Zm0,9.18a3.1,3.1,0,1,1,3.1-3.1A3.1,3.1,0,0,1,119.57,148.3Z"/><path class="cls-3" d="M19.4,197H1.5a1.49,1.49,0,1,0,0,3H19.4a1.49,1.49,0,1,0,0-3Z"/><path class="cls-3" d="M237.64,197h-17.9a1.49,1.49,0,1,0,0,3h17.9a1.49,1.49,0,1,0,0-3Z"/><path class="cls-3" d="M209.59,197h-180a1.49,1.49,0,0,0,0,3h180a1.49,1.49,0,1,0,0-3Z"/><path class="cls-3" d="M1.49,189.08H237.64a1.49,1.49,0,1,0,0-3H160v-7.89a1.48,1.48,0,0,0-1.49-1.49h-9.58V157.11h68.51a15.45,15.45,0,0,0,15.43-15.43V15.43A15.45,15.45,0,0,0,217.45,0H21.69A15.45,15.45,0,0,0,6.26,15.43V141.67a15.45,15.45,0,0,0,15.43,15.44H90.2v19.61H80.61a1.49,1.49,0,0,0-1.49,1.49v7.89H1.49a1.5,1.5,0,0,0,0,3Zm7.75-47.41V15.43A12.47,12.47,0,0,1,21.69,3H217.45a12.46,12.46,0,0,1,12.44,12.45V141.67a12.46,12.46,0,0,1-12.44,12.45H21.69A12.47,12.47,0,0,1,9.24,141.67Zm84,15.44H146v19.61H93.19ZM82.11,179.7H157v6.4H82.11Z"/><path class="cls-3" d="M203.87,61h-9.13c-.07-.17-.14-.34-.22-.51L201,54a1.5,1.5,0,0,0,0-2.11L186.86,37.75a1.5,1.5,0,0,0-2.11,0l-6.46,6.46-.51-.21V34.87a1.5,1.5,0,0,0-1.49-1.5h-20a1.5,1.5,0,0,0-1.49,1.5V44a5.49,5.49,0,0,0-.51.21l-6.46-6.46a1.5,1.5,0,0,0-2.11,0L131.63,51.87a1.5,1.5,0,0,0,0,2.11l6.46,6.46c-.08.17-.15.34-.22.51h-9.13a1.49,1.49,0,0,0-1.49,1.49v20a1.49,1.49,0,0,0,1.49,1.49h9.13c.07.17.15.34.22.52l-6.46,6.45a1.5,1.5,0,0,0,0,2.11l14.12,14.12a1.5,1.5,0,0,0,2.11,0l6.46-6.46.51.22V110a1.49,1.49,0,0,0,1.49,1.49h20a1.49,1.49,0,0,0,1.49-1.49v-9.13l.51-.22,6.46,6.46a1.5,1.5,0,0,0,2.11,0L201,93a1.5,1.5,0,0,0,0-2.11l-6.46-6.45.22-.52h9.13a1.49,1.49,0,0,0,1.49-1.49v-20A1.49,1.49,0,0,0,203.87,61Zm-1.5,20h-8.66a1.5,1.5,0,0,0-1.4,1c-.26.72-.56,1.44-.92,2.21a1.48,1.48,0,0,0,.3,1.69l6.13,6.13-12,12-6.13-6.12a1.48,1.48,0,0,0-1.69-.3c-.77.36-1.5.66-2.22.92a1.5,1.5,0,0,0-1,1.4v8.66h-17V99.83a1.5,1.5,0,0,0-1-1.4c-.71-.26-1.44-.56-2.21-.92a1.48,1.48,0,0,0-1.69.3l-6.13,6.12-12-12,6.13-6.13a1.49,1.49,0,0,0,.29-1.69c-.36-.77-.66-1.49-.92-2.21a1.48,1.48,0,0,0-1.4-1h-8.66v-17h8.66a1.49,1.49,0,0,0,1.4-1c.26-.71.56-1.43.92-2.21a1.48,1.48,0,0,0-.29-1.68l-6.13-6.13,12-12,6.12,6.13a1.52,1.52,0,0,0,1.69.3c.77-.36,1.49-.66,2.22-.93a1.49,1.49,0,0,0,1-1.4V36.36h17V45a1.48,1.48,0,0,0,1,1.4c.72.26,1.46.57,2.21.92a1.49,1.49,0,0,0,1.69-.29l6.13-6.13,12,12-6.13,6.12a1.52,1.52,0,0,0-.3,1.69c.36.77.66,1.5.93,2.21a1.48,1.48,0,0,0,1.4,1h8.66Z"/><path class="cls-3" d="M166.3,58.22a14.21,14.21,0,1,0,14.21,14.21h0A14.23,14.23,0,0,0,166.3,58.22Zm0,25.43a11.22,11.22,0,1,1,11.22-11.22h0A11.23,11.23,0,0,1,166.3,83.65Z"/><path class="cls-3" d="M119.56,31.54H58A1.49,1.49,0,0,0,56.49,33v12.6A1.5,1.5,0,0,0,58,47.13h61.58a1.5,1.5,0,0,0,1.49-1.5V33A1.49,1.49,0,0,0,119.56,31.54Zm-1.49,12.6H59.48V34.52h58.58Z"/><path class="cls-3" d="M119.56,53.6H58a1.5,1.5,0,0,0-1.49,1.5V67.7A1.49,1.49,0,0,0,58,69.19h61.58a1.49,1.49,0,0,0,1.49-1.49V55.1A1.5,1.5,0,0,0,119.56,53.6Zm-1.49,12.61H59.48V56.59h58.58Z"/><path class="cls-3" d="M119.56,75.67H58a1.49,1.49,0,0,0-1.49,1.49v12.6A1.5,1.5,0,0,0,58,91.26h61.58a1.5,1.5,0,0,0,1.49-1.5V77.16A1.49,1.49,0,0,0,119.56,75.67Zm-1.49,12.6H59.48V78.65h58.58Z"/><path class="cls-3" d="M119.56,97.73H58a1.5,1.5,0,0,0-1.49,1.5v12.6A1.49,1.49,0,0,0,58,113.32h61.58a1.49,1.49,0,0,0,1.49-1.49V99.23a1.5,1.5,0,0,0-1.49-1.5Zm-1.49,12.61H59.48v-9.62h58.58Z"/><path class="cls-3" d="M47.87,31.54H35.27A1.49,1.49,0,0,0,33.78,33v12.6a1.5,1.5,0,0,0,1.49,1.5h12.6a1.5,1.5,0,0,0,1.5-1.5V33A1.5,1.5,0,0,0,47.87,31.54Zm-1.49,12.6H36.76V34.52h9.62Z"/><path class="cls-3" d="M47.87,53.6H35.27a1.5,1.5,0,0,0-1.49,1.5V67.7a1.49,1.49,0,0,0,1.49,1.49h12.6a1.5,1.5,0,0,0,1.5-1.49V55.1A1.5,1.5,0,0,0,47.87,53.6ZM46.38,66.21H36.76V56.59h9.62Z"/><path class="cls-3" d="M47.87,75.67H35.27a1.49,1.49,0,0,0-1.49,1.49v12.6a1.5,1.5,0,0,0,1.49,1.5h12.6a1.5,1.5,0,0,0,1.5-1.5V77.16A1.5,1.5,0,0,0,47.87,75.67Zm-1.49,12.6H36.76V78.65h9.62Z"/><path class="cls-3" d="M47.87,97.73H35.27a1.5,1.5,0,0,0-1.49,1.5v12.6a1.49,1.49,0,0,0,1.49,1.49h12.6a1.5,1.5,0,0,0,1.5-1.49V99.23a1.5,1.5,0,0,0-1.5-1.5Zm-1.49,12.61H36.76v-9.62h9.62Z"/></g></g></svg>