<svg height="512" viewBox="0 0 256 256" width="512" xmlns="http://www.w3.org/2000/svg"><rect fill="#63bce7" height="154.91" rx="14.009" width="224.78" x="15.61" y="28.986"/><path d="m25.11 169.887v-126.887a14.025 14.025 0 0 1 14.009-14.014h-9.5a14.025 14.025 0 0 0 -14.009 14.014v126.887a14.025 14.025 0 0 0 14.009 14.013h9.5a14.025 14.025 0 0 1 -14.009-14.013z" fill="#6377e7"/><path d="m230.89 169.887v-126.887a14.025 14.025 0 0 0 -14.009-14.009h9.5a14.025 14.025 0 0 1 14.009 14.009v126.887a14.025 14.025 0 0 1 -14.009 14.013h-9.5a14.025 14.025 0 0 0 14.009-14.013z" fill="#63e2e7"/><rect fill="#f8af23" height="125.366" rx="5.388" width="207.538" x="24.231" y="37.607"/><path d="m33.731 157.585v-114.59a5.4 5.4 0 0 1 5.388-5.388h-9.5a5.4 5.4 0 0 0 -5.388 5.388v114.59a5.4 5.4 0 0 0 5.388 5.388h9.5a5.4 5.4 0 0 1 -5.388-5.388z" fill="#f87023"/><path d="m222.269 157.585v-114.59a5.4 5.4 0 0 0 -5.388-5.388h9.5a5.4 5.4 0 0 1 5.388 5.388v114.59a5.4 5.4 0 0 1 -5.388 5.388h-9.5a5.4 5.4 0 0 0 5.388-5.388z" fill="#f8d323"/><path d="m88.847 206.612h78.305v9.429h-78.305z" fill="#f46275"/><path d="m88.847 206.612h9.5v9.429h-9.5z" fill="#f43075"/><path d="m99.983 183.896h56.035v22.716h-56.035z" fill="#9e9e9e"/><path d="m99.983 183.896h9.5v22.716h-9.5z" fill="#707070"/><circle cx="128" cy="173.435" fill="#f46275" r="4.613"/><path d="m202.521 110.32c-.289.805-.615 1.58-.972 2.348l7.218 7.218-14.193 14.193-7.218-7.218c-.767.357-1.55.684-2.348.973v10.211h-20.066v-10.212c-.8-.289-1.58-.615-2.348-.973l-7.218 7.218-14.193-14.193 7.218-7.218c-.357-.767-.684-1.542-.972-2.348h-10.211v-20.064h10.212c.289-.8.615-1.58.972-2.348l-7.218-7.218 14.193-14.189 7.218 7.225c.767-.357 1.55-.691 2.348-.98v-10.2h20.066v10.2c.8.289 1.58.623 2.348.98l7.218-7.225 14.193 14.193-7.218 7.218c.357.767.684 1.55.972 2.348h10.2v20.061z" fill="#f46275"/><circle cx="174.975" cy="100.289" fill="#63bce7" r="12.778"/><path d="m66.105 60.692h61.887v12.667h-61.887z" fill="#f46275"/><path d="m66.105 82.869h61.887v12.667h-61.887z" fill="#f46275"/><path d="m66.105 105.047h61.887v12.667h-61.887z" fill="#f46275"/><path d="m66.105 127.224h61.887v12.667h-61.887z" fill="#f46275"/><path d="m43.272 60.692h12.667v12.667h-12.667z" fill="#63bce7"/><path d="m43.272 82.869h12.667v12.667h-12.667z" fill="#63bce7"/><path d="m43.272 105.047h12.667v12.667h-12.667z" fill="#63bce7"/><path d="m43.272 127.224h12.667v12.667h-12.667z" fill="#63bce7"/><g fill="#3f3679"><path d="m233.269 157.585v-114.585a6.9 6.9 0 0 0 -6.888-6.889h-196.762a6.9 6.9 0 0 0 -6.888 6.889v114.59a6.9 6.9 0 0 0 6.888 6.888h196.762a6.9 6.9 0 0 0 6.888-6.893zm-207.538 0v-114.585a3.893 3.893 0 0 1 3.888-3.889h196.762a3.893 3.893 0 0 1 3.888 3.889v114.59a3.892 3.892 0 0 1 -3.888 3.888h-196.762a3.892 3.892 0 0 1 -3.888-3.893z"/><path d="m128 167.321a6.113 6.113 0 1 0 6.113 6.113 6.12 6.12 0 0 0 -6.113-6.113zm0 9.227a3.113 3.113 0 1 1 3.113-3.113 3.117 3.117 0 0 1 -3.113 3.113z"/><path d="m27.323 225.514h-18a1.5 1.5 0 1 0 0 3h18a1.5 1.5 0 1 0 0-3z"/><path d="m246.68 225.514h-18a1.5 1.5 0 0 0 0 3h18a1.5 1.5 0 0 0 0-3z"/><path d="m218.479 225.514h-180.958a1.5 1.5 0 0 0 0 3h180.958a1.5 1.5 0 0 0 0-3z"/><path d="m9.32 217.541h237.36a1.5 1.5 0 0 0 0-3h-78.027v-7.93a1.5 1.5 0 0 0 -1.5-1.5h-9.635v-19.711h68.864a15.526 15.526 0 0 0 15.508-15.508v-126.892a15.526 15.526 0 0 0 -15.508-15.509h-196.763a15.526 15.526 0 0 0 -15.509 15.509v126.888a15.526 15.526 0 0 0 15.509 15.512h68.863v19.716h-9.635a1.5 1.5 0 0 0 -1.5 1.5v7.93h-78.027a1.5 1.5 0 1 0 0 3zm7.791-47.653v-126.888a12.523 12.523 0 0 1 12.508-12.514h196.762a12.523 12.523 0 0 1 12.509 12.514v126.888a12.523 12.523 0 0 1 -12.509 12.512h-196.762a12.523 12.523 0 0 1 -12.509-12.512zm84.371 15.512h53.035v19.716h-53.035zm-11.135 22.711h75.306v6.43h-75.306z"/><path d="m212.729 88.755h-9.177q-.1-.256-.215-.516l6.49-6.49a1.5 1.5 0 0 0 0-2.121l-14.19-14.19a1.5 1.5 0 0 0 -2.121 0l-6.491 6.49c-.172-.074-.344-.146-.515-.216v-9.177a1.5 1.5 0 0 0 -1.5-1.5h-20.069a1.5 1.5 0 0 0 -1.5 1.5v9.177q-.256.1-.515.216l-6.491-6.49a1.5 1.5 0 0 0 -2.121 0l-14.19 14.19a1.5 1.5 0 0 0 0 2.121l6.49 6.49q-.111.259-.215.516h-9.177a1.5 1.5 0 0 0 -1.5 1.5v20.068a1.5 1.5 0 0 0 1.5 1.5h9.178c.07.17.141.342.215.515l-6.49 6.491a1.5 1.5 0 0 0 0 2.121l14.19 14.189a1.5 1.5 0 0 0 2.121 0l6.49-6.489c.173.074.345.146.516.215v9.177a1.5 1.5 0 0 0 1.5 1.5h20.068a1.5 1.5 0 0 0 1.5-1.5v-9.177q.256-.1.516-.215l6.49 6.489a1.5 1.5 0 0 0 2.121 0l14.19-14.189a1.5 1.5 0 0 0 0-2.121l-6.49-6.491c.074-.173.146-.344.215-.515h9.177a1.5 1.5 0 0 0 1.5-1.5v-20.068a1.5 1.5 0 0 0 -1.5-1.5zm-1.5 20.068h-8.705a1.5 1.5 0 0 0 -1.409.985c-.263.721-.567 1.448-.929 2.226a1.5 1.5 0 0 0 .3 1.694l6.161 6.161-12.069 12.068-6.161-6.16a1.5 1.5 0 0 0 -1.7-.3c-.774.362-1.5.665-2.224.929a1.5 1.5 0 0 0 -.987 1.409v8.705h-17.065v-8.705a1.5 1.5 0 0 0 -.987-1.409c-.72-.263-1.448-.566-2.224-.929a1.5 1.5 0 0 0 -1.695.3l-6.161 6.16-12.068-12.067 6.16-6.161a1.5 1.5 0 0 0 .3-1.694c-.363-.778-.666-1.506-.928-2.225a1.5 1.5 0 0 0 -1.409-.986h-8.706v-17.069h8.706a1.5 1.5 0 0 0 1.41-.987c.261-.718.565-1.445.928-2.225a1.5 1.5 0 0 0 -.3-1.694l-6.16-6.16 12.069-12.069 6.161 6.16a1.5 1.5 0 0 0 1.695.3c.768-.358 1.5-.662 2.226-.929a1.5 1.5 0 0 0 .985-1.409v-8.707h17.068v8.705a1.5 1.5 0 0 0 .985 1.409c.722.264 1.471.576 2.225.929a1.5 1.5 0 0 0 1.7-.3l6.161-6.16 12.069 12.069-6.16 6.16a1.5 1.5 0 0 0 -.3 1.694c.362.777.666 1.506.929 2.226a1.5 1.5 0 0 0 1.409.986h8.705z"/><path d="m174.975 86.011a14.278 14.278 0 1 0 14.278 14.278 14.294 14.294 0 0 0 -14.278-14.278zm0 25.556a11.278 11.278 0 1 1 11.278-11.277 11.29 11.29 0 0 1 -11.278 11.276z"/><path d="m127.992 59.191h-61.892a1.5 1.5 0 0 0 -1.5 1.5v12.667a1.5 1.5 0 0 0 1.5 1.5h61.887a1.5 1.5 0 0 0 1.5-1.5v-12.667a1.5 1.5 0 0 0 -1.495-1.5zm-1.5 12.667h-58.892v-9.667h58.887z"/><path d="m127.992 81.369h-61.892a1.5 1.5 0 0 0 -1.5 1.5v12.667a1.5 1.5 0 0 0 1.5 1.5h61.887a1.5 1.5 0 0 0 1.5-1.5v-12.667a1.5 1.5 0 0 0 -1.495-1.5zm-1.5 12.667h-58.892v-9.667h58.887z"/><path d="m127.992 103.547h-61.892a1.5 1.5 0 0 0 -1.5 1.5v12.667a1.5 1.5 0 0 0 1.5 1.5h61.887a1.5 1.5 0 0 0 1.5-1.5v-12.667a1.5 1.5 0 0 0 -1.495-1.5zm-1.5 12.667h-58.892v-9.667h58.887z"/><path d="m127.992 125.725h-61.892a1.5 1.5 0 0 0 -1.5 1.5v12.666a1.5 1.5 0 0 0 1.5 1.5h61.887a1.5 1.5 0 0 0 1.5-1.5v-12.666a1.5 1.5 0 0 0 -1.495-1.5zm-1.5 12.666h-58.892v-9.666h58.887z"/><path d="m55.938 59.191h-12.667a1.5 1.5 0 0 0 -1.5 1.5v12.667a1.5 1.5 0 0 0 1.5 1.5h12.667a1.5 1.5 0 0 0 1.5-1.5v-12.667a1.5 1.5 0 0 0 -1.5-1.5zm-1.5 12.667h-9.667v-9.667h9.667z"/><path d="m55.938 81.369h-12.667a1.5 1.5 0 0 0 -1.5 1.5v12.667a1.5 1.5 0 0 0 1.5 1.5h12.667a1.5 1.5 0 0 0 1.5-1.5v-12.667a1.5 1.5 0 0 0 -1.5-1.5zm-1.5 12.667h-9.667v-9.667h9.667z"/><path d="m55.938 103.547h-12.667a1.5 1.5 0 0 0 -1.5 1.5v12.667a1.5 1.5 0 0 0 1.5 1.5h12.667a1.5 1.5 0 0 0 1.5-1.5v-12.667a1.5 1.5 0 0 0 -1.5-1.5zm-1.5 12.667h-9.667v-9.667h9.667z"/><path d="m55.938 125.725h-12.667a1.5 1.5 0 0 0 -1.5 1.5v12.666a1.5 1.5 0 0 0 1.5 1.5h12.667a1.5 1.5 0 0 0 1.5-1.5v-12.666a1.5 1.5 0 0 0 -1.5-1.5zm-1.5 12.666h-9.667v-9.666h9.667z"/></g></svg>