<?xml version="1.0" encoding="iso-8859-1"?>
<!-- Generator: Adobe Illustrator 19.0.0, SVG Export Plug-In . SVG Version: 6.00 Build 0)  -->
<svg version="1.1" id="Capa_1" xmlns="http://www.w3.org/2000/svg" xmlns:xlink="http://www.w3.org/1999/xlink" x="0px" y="0px"
	 viewBox="0 0 512 512" style="enable-background:new 0 0 512 512;" xml:space="preserve">
<polygon style="fill:#FF9400;" points="351,512 323.402,512 256,487.928 188.598,512 161,512 161,371 351,371 "/>
<polygon style="fill:#FF6849;" points="256,371 256,487.928 323.402,512 351,512 351,371 "/>
<path style="fill:#FFEA84;" d="M456,200c0-15.9-7.426-30.058-18.995-39.213c-5.235-4.142-7.106-11.125-4.644-17.33
	c5.442-13.713,4.794-29.687-3.156-43.457s-21.46-22.318-36.057-24.462c-6.605-0.97-11.717-6.082-12.687-12.687
	C378.319,48.255,369.77,34.745,356,26.795s-29.744-8.598-43.457-3.156c-6.205,2.463-13.188,0.592-17.33-4.644
	C286.058,7.426,271.9,0,256,0s-30.058,7.426-39.213,18.995c-4.142,5.235-11.125,7.106-17.33,4.644
	c-13.713-5.442-29.687-4.794-43.457,3.156s-22.318,21.46-24.462,36.057c-0.97,6.605-6.082,11.717-12.687,12.687
	C104.255,77.682,90.745,86.23,82.795,100s-8.598,29.744-3.156,43.457c2.463,6.205,0.592,13.188-4.644,17.33
	C63.426,169.942,56,184.1,56,200s7.426,30.058,18.995,39.213c5.235,4.142,7.106,11.125,4.644,17.33
	c-5.442,13.713-4.794,29.687,3.156,43.457s21.46,22.318,36.057,24.462c6.605,0.97,11.717,6.082,12.687,12.687
	c2.143,14.597,10.692,28.107,24.462,36.057s29.744,8.598,43.457,3.156c6.205-2.463,13.188-0.592,17.33,4.644
	C225.942,392.574,240.1,400,256,400s30.058-7.426,39.213-18.995c4.142-5.235,11.125-7.106,17.33-4.644
	c13.713,5.442,29.687,4.794,43.457-3.156s22.319-21.46,24.462-36.057c0.97-6.605,6.082-11.717,12.687-12.687
	c14.597-2.143,28.107-10.692,36.057-24.462c7.95-13.77,8.598-29.744,3.156-43.457c-2.463-6.205-0.592-13.188,4.644-17.33
	C448.574,230.058,456,215.9,456,200z"/>
<path style="fill:#FFDC40;" d="M437.005,160.787c-5.235-4.142-7.106-11.125-4.644-17.33c5.442-13.713,4.794-29.687-3.156-43.457
	s-21.46-22.319-36.057-24.462c-6.605-0.97-11.717-6.082-12.687-12.687C378.318,48.255,369.77,34.745,356,26.795
	s-29.744-8.598-43.457-3.156c-6.205,2.463-13.188,0.592-17.33-4.644C286.058,7.426,271.9,0,256,0v400
	c15.9,0,30.058-7.426,39.213-18.995c4.142-5.235,11.125-7.106,17.33-4.644c13.713,5.442,29.687,4.794,43.457-3.156
	s22.319-21.46,24.462-36.057c0.97-6.605,6.082-11.717,12.687-12.686c14.597-2.143,28.107-10.692,36.057-24.462
	c7.95-13.77,8.598-29.744,3.156-43.457c-2.463-6.205-0.592-13.188,4.644-17.33C448.574,230.058,456,215.9,456,200
	S448.574,169.942,437.005,160.787z"/>
<path style="fill:#FFFFFF;" d="M256,345c-79.953,0-145-65.047-145-145S176.047,55,256,55s145,65.047,145,145S335.953,345,256,345z
	 M256,85c-63.411,0-115,51.589-115,115s51.589,115,115,115s115-51.589,115-115S319.411,85,256,85z"/>
<path style="fill:#F2F2F4;" d="M256,55v30c63.411,0,115,51.589,115,115s-51.589,115-115,115v30c79.953,0,145-65.047,145-145
	S335.953,55,256,55z"/>
<polygon style="fill:#76CC5B;" points="242.566,252.188 199.293,209.353 220.398,188.032 242.4,209.812 291.519,160.423 
	312.79,181.577 "/>
<polygon style="fill:#599944;" points="256.042,238.639 312.79,181.577 291.519,160.423 256.042,196.095 "/>
<g>
</g>
<g>
</g>
<g>
</g>
<g>
</g>
<g>
</g>
<g>
</g>
<g>
</g>
<g>
</g>
<g>
</g>
<g>
</g>
<g>
</g>
<g>
</g>
<g>
</g>
<g>
</g>
<g>
</g>
</svg>
